<svg width="207" height="59" viewBox="0 0 207 59" fill="none" xmlns="http://www.w3.org/2000/svg"><path d="M43.594 41.062v3.77c-.279 3.937-2.843 4.443-6.578 4.668v8.944h25.365V49.5c-3.79-.225-6.3-.675-6.634-4.669v-3.769H43.594Z" fill="#EC6626"/><path d="M.669 25.256h61.88c.39 0 .668.338.668.732 0 .393-.279.73-.669.73H.67c-.335.057-.669-.28-.669-.674v-.056c0-.394.334-.732.669-.732ZM.669 28.969h61.88c.39 0 .668.337.668.73 0 .395-.279.732-.669.732H.67c-.39 0-.669-.337-.669-.731v-.056c0-.338.334-.675.669-.675ZM.669 32.68h61.88c.39 0 .668.338.668.732 0 .394-.279.731-.669.731H.67c-.39 0-.669-.337-.669-.73v-.057a.68.68 0 0 1 .669-.675ZM.669 36.394h61.88c.39 0 .668.337.668.73 0 .395-.279.732-.669.732H.67c-.335 0-.669-.337-.669-.731v-.056a.68.68 0 0 1 .669-.675ZM.669 39.993h61.88c.39 0 .668.338.668.732 0 .393-.279.731-.669.731H.67c-.39 0-.669-.338-.669-.731v-.056c0-.338.334-.675.669-.675Z" fill="#009A4F"/><path d="M1.003 49.556v8.888h25.588l-.055-8.888c-1.784 0-3.01-.168-3.791-.843-.836-.675-.78-1.52.111-2.87l20.738-30.656V25.37h12.097V0H41.086l-29.77 43.819c-3.121 4.612-4.125 5.85-10.313 5.737Z" fill="#EC6626"/><path d="M200.411 33.525c-.558 2.138-1.227 3.713-1.951 4.669-.335.45-.725.787-1.115 1.012-.502.282-1.06.45-1.617.45-1.059 0-1.728-.506-1.951-1.462-.223-.956-.056-2.531.502-4.725.557-2.138 1.226-3.656 1.951-4.613.334-.45.724-.787 1.115-1.012.501-.281 1.059-.45 1.616-.45 1.06 0 1.728.506 1.951 1.462.223.957.056 2.532-.501 4.67Zm5.407-6.3c-1.226-1.519-3.289-2.306-6.188-2.306-.78 0-1.561.056-2.285.169a11.207 11.207 0 0 0-5.185 2.137c-2.062 1.519-3.456 3.656-4.125 6.3-.725 2.644-.446 4.781.78 6.3 1.227 1.519 3.289 2.306 6.188 2.306a16.4 16.4 0 0 0 2.342-.168 11.282 11.282 0 0 0 5.128-2.082c2.063-1.518 3.457-3.6 4.126-6.3.724-2.756.446-4.837-.781-6.356Z" fill="#009A4F"/><path d="M178.669 34.088h-1.393l1.393-2.588 1.283-2.306.167 4.894h-1.45Zm7.359 4.95c-.167-.17-.279-.675-.334-1.463l-.502-12.206h-5.798l-.725 1.181-6.745 11.025c-.334.563-.725 1.013-1.059 1.294a1.696 1.696 0 0 1-1.115.394h-.613l-.614 2.306h7.192l.613-2.306h-.78c-.335 0-.614-.057-.781-.113-.167-.056-.223-.169-.223-.337.056-.113.056-.225.167-.394a3.67 3.67 0 0 1 .335-.563l.892-1.518h4.348l.112 1.743v.338c0 .112-.056.225-.056.337-.056.17-.167.338-.279.394-.167.056-.557.113-1.171.113h-.669l-.613 2.306h9.7l.613-2.306h-.836c-.557.056-.892-.057-1.059-.225ZM165.29 33.525c-.557 2.081-1.171 3.544-1.951 4.444-.223.28-.502.562-.836.73-.613.395-1.282.563-2.063.563h-1.282l3.066-11.475h1.226c1.171 0 1.896.45 2.175 1.35.39.844.223 2.307-.335 4.388Zm6.244 0c.725-2.756.502-4.781-.725-6.075-1.226-1.35-3.4-1.969-6.634-1.969h-8.696l-.614 2.306h.781c.557 0 .892.057 1.003.225.112.17.112.563-.055 1.182l-2.342 8.83-.056.113c-.167.62-.334.957-.557 1.07-.223.112-.557.168-1.115.168h-.78l-.614 2.306h8.697c.948 0 1.84-.056 2.676-.169 2.007-.28 3.679-.9 5.017-1.8 1.951-1.462 3.289-3.487 4.014-6.187ZM141.765 34.088h-1.394l1.394-2.588 1.282-2.306.167 4.894h-1.449Zm7.358 4.95c-.167-.169-.278-.675-.334-1.463l-.502-12.15h-5.797l-.725 1.182-6.746 11.025c-.334.562-.724 1.012-1.059 1.294a1.693 1.693 0 0 1-1.115.393h-.613l-.613 2.306h7.191l.613-2.306h-.78a2.56 2.56 0 0 1-.78-.112c-.168-.056-.223-.169-.223-.338.055-.112.055-.225.167-.394.056-.112.167-.337.334-.562l.892-1.519h4.349l.111 1.744v.337c0 .113-.056.225-.056.338-.055.169-.167.337-.278.394-.168.056-.558.112-1.171.112h-.669l-.613 2.306h9.7l.613-2.306h-.836c-.558 0-.892-.112-1.06-.281ZM131.061 35.494c-.446 1.35-1.115 2.362-2.006 3.15-.892.787-1.896 1.181-2.955 1.181-1.171 0-1.951-.506-2.174-1.462-.279-.957-.112-2.532.446-4.725.557-2.138 1.226-3.657 2.007-4.613.78-.956 1.728-1.462 2.843-1.462.947 0 1.672.337 2.062 1.068.391.732.502 1.857.391 3.375h2.898l1.784-6.693h-2.62l-.669.9c-.557-.394-1.226-.675-1.895-.844a10.273 10.273 0 0 0-2.341-.281c-2.565 0-4.85.787-6.802 2.362-1.951 1.575-3.289 3.656-3.958 6.244-.724 2.756-.557 4.894.558 6.356 1.115 1.463 3.01 2.194 5.798 2.194 2.341 0 4.348-.563 5.964-1.744 1.617-1.181 2.732-2.812 3.345-5.006h-2.676ZM108.205 34.088h-1.394l1.394-2.588 1.282-2.306.167 4.894h-1.449Zm7.359 4.95c-.168-.17-.279-.675-.335-1.463l-.502-12.206h-5.797l-.725 1.181-6.745 11.081c-.335.563-.725 1.013-1.06 1.294a1.693 1.693 0 0 1-1.115.394h-.613l-.613 2.306h7.191l.614-2.306h-.781a2.56 2.56 0 0 1-.78-.113c-.168-.056-.223-.168-.223-.337.055-.113.055-.225.167-.394.056-.112.167-.337.334-.562l.892-1.52h4.349l.111 1.745v.337c0 .113-.056.225-.056.338-.055.168-.167.337-.278.393-.168.057-.558.113-1.171.113h-.669l-.725 2.306h9.7l.613-2.306h-.836c-.446 0-.78-.113-.947-.281ZM97.502 27.957h.724c.892 0 1.506.28 1.784.9.335.618.335 1.462 0 2.643v.057h2.342l1.616-6.132H87.077l-1.617 6.132h2.398V31.5c.278-1.125.78-2.025 1.393-2.643.613-.62 1.394-.9 2.23-.9h.725l-2.62 9.956c-.168.675-.39 1.069-.558 1.181-.223.113-.557.169-1.115.169h-1.226l-.614 2.306h10.593l.613-2.306H95.94c-.558 0-.892-.056-1.06-.225-.11-.169-.11-.563.056-1.181l2.565-9.9ZM76.54 34.088h-1.393l1.394-2.588 1.282-2.306.167 4.894h-1.45Zm7.36 4.95c-.168-.169-.28-.675-.335-1.463l-.502-12.15h-5.797l-.725 1.182-6.746 11.025c-.334.562-.724 1.012-1.059 1.294a1.695 1.695 0 0 1-1.115.393h-.613l-.613 2.306h7.191l.613-2.306h-.78c-.335 0-.613-.056-.78-.112-.168-.056-.224-.169-.224-.338.056-.112.056-.225.168-.394.055-.112.167-.337.334-.562l.892-1.519h4.348l.112 1.744v.337c0 .113-.056.225-.056.338-.056.169-.167.337-.279.394-.167.056-.557.112-1.17.112h-.669l-.614 2.306H85.182l.613-2.306h-.837c-.557 0-.891-.112-1.059-.281ZM186.307 22.444h-5.909l-.837 1.462h5.854l.892-1.462Z" fill="#009A4F"/><path d="M87.189 13.5h1.17l-.892 3.319H86.13c.056-.45.056-.732.056-.9 0-.17-.056-.45-.167-.844-.112-.338-.558-.506-1.227-.506-1.337 0-2.34 1.068-2.898 3.15-.28 1.012-.28 1.856-.112 2.418.223.563.67.844 1.282.844.614 0 1.115-.169 1.505-.562.39-.394.725-.957.948-1.688h1.394c-.167.619-.335 1.069-.502 1.406-.167.338-.502.675-.892 1.07-.39.393-.892.674-1.505.9-.557.224-1.227.337-1.895.337-1.338 0-2.286-.45-2.9-1.294-.557-.844-.668-1.969-.334-3.375.335-1.35 1.06-2.419 2.063-3.263 1.003-.843 2.174-1.293 3.456-1.293.502 0 .892.056 1.227.168.278.113.501.225.613.282.111.056.223.225.39.45l.558-.62ZM90.422 18.113h1.728l-.112-2.757-1.616 2.757Zm-4.293 2.812h.502c.112 0 .223-.056.39-.169.168-.112.279-.225.39-.393l4.181-6.92h3.01l.391 6.92c0 .225.056.393.112.506.111.056.167.056.223.056h.557l-.334 1.294h-4.739l.335-1.294h.947c.056 0 .056-.056.112-.169v-.393l-.056-.957h-2.564l-.558.957-.167.393v.17c.056 0 .111.055.279.055h.78l-.334 1.294h-3.847l.39-1.35ZM102.073 14.737l-.613 2.307h1.449c.279 0 .502-.113.725-.338.223-.225.39-.506.446-.787.111-.394.111-.676-.056-.9-.111-.17-.446-.282-.836-.282h-1.115Zm-3.68-1.237h5.241c.836 0 1.393 0 1.728.056.334.056.613.169.892.338.279.168.446.393.557.675.112.28.056.618 0 1.012-.055.225-.167.45-.278.619-.112.225-.279.393-.446.562a3.975 3.975 0 0 1-.558.45c-.167.113-.502.225-.947.338.055.056.167.056.278.112.112.056.167.113.279.169.056.056.167.225.223.394.111.168.111.393.111.562 0 .169-.055.45-.167.844l-.167.506c-.056.169-.056.282-.056.394 0 .225.056.338.223.338.279 0 .502-.282.613-.844l.112-.338h1.003l-.167.675c-.167.563-.446 1.069-.948 1.407-.446.337-1.003.506-1.728.506-.39 0-.78-.056-1.115-.225-.334-.169-.501-.394-.613-.788-.056-.393 0-.9.167-1.631.168-.563.168-.9.056-1.125-.111-.169-.39-.281-.892-.281h-.78l-.558 2.137c-.056.282-.111.394-.056.45.056.056.168.113.391.113h.78l-.334 1.293h-5.24l.334-1.293h1.06c.055 0 .11 0 .166-.056.112-.057.168-.226.28-.507l.11-.393 1.227-4.726c.056-.225.056-.393 0-.45l-.167-.112H97.948l.446-1.181Z" fill="#EC6626"/><path d="M107.815 13.5h8.808l-.892 3.375h-1.282l.056-.282c.167-.562.167-1.012 0-1.293-.168-.338-.446-.45-.837-.45h-.446l-1.505 5.569c-.056.224-.056.393-.056.45.056.056.168.112.391.112h.78l-.334 1.294h-5.296l.334-1.294H108.484c.111 0 .167 0 .279-.056.111-.056.223-.225.334-.506l.112-.338 1.393-5.287h-.502c-.39 0-.78.168-1.114.506-.335.337-.558.787-.725 1.35l-.056.281h-1.282l.892-3.431ZM117.794 18.113h1.728l-.112-2.757-1.616 2.757Zm-4.349 2.812h.502c.112 0 .223-.056.39-.169.168-.112.279-.225.391-.393l4.181-6.92h3.01l.39 6.92c0 .225.056.393.112.506.111.056.167.056.223.056h.557l-.334 1.294h-4.683l.334-1.294h.948c.056 0 .056-.056.112-.169v-.393l-.056-.957h-2.565l-.557.957-.167.393v.17c.055 0 .111.055.278.055h.781l-.335 1.294h-3.846l.334-1.35ZM126.434 17.775c-.278 1.069-.334 1.913-.167 2.475.167.563.502.9 1.115.9.558 0 1.115-.281 1.561-.9.502-.562.836-1.406 1.115-2.475.279-1.069.334-1.912.167-2.475-.167-.562-.557-.9-1.115-.9-.557 0-1.059.281-1.561.9-.446.563-.836 1.406-1.115 2.475Zm-.334-3.6a5.86 5.86 0 0 1 3.345-1.012c1.226 0 2.174.337 2.899 1.069.724.73.892 1.912.446 3.543a8.482 8.482 0 0 1-.892 2.138c-.391.562-1.004 1.125-1.84 1.687-.836.563-1.84.788-3.066.788-1.227 0-2.174-.338-2.899-1.069-.725-.731-.892-1.912-.446-3.544.223-.843.502-1.518.892-2.137.446-.563.948-1.069 1.561-1.463ZM119.466 11.925h3.01l-.446.787h-3.01l.446-.787Z" fill="#EC6626"/></svg>