<svg width="160" height="66" viewBox="0 0 160 66" fill="none" xmlns="http://www.w3.org/2000/svg"><g clip-path="url(#a)"><path d="M110.503 16.387c-4.198 0-6.899 1.555-9.431 5.557-1.843-4.301-5.175-5.491-8.287-5.491-2.414 0-5.695.774-7.479 4.001l-.403-2.33a1.227 1.227 0 0 0-1.211-1.014H78.7c-.675 0-1.226.547-1.226 1.22V45.4c0 .672.55 1.22 1.226 1.22h5.835c.675 0 1.225-.548 1.225-1.22V30.846c0-3.345 1.725-6.514 5.006-6.514 3.39 0 5.005 2.57 5.005 6.448v14.612c0 .672.551 1.22 1.226 1.22h5.718c.675 0 1.225-.548 1.225-1.22V30.78c0-3.345 1.498-6.273 4.771-6.273 3.339 0 4.771 2.446 4.771 6.149v14.729c0 .672.55 1.22 1.225 1.22h5.887c.675 0 1.225-.548 1.225-1.22V30.481c.015-10.983-5.394-14.094-11.317-14.094ZM57.798 16.197c-3.515 0-6.855 1.088-9.402 4.22V4.134c0-.679-.55-1.234-1.24-1.234h-6.32c-.682 0-1.24.548-1.24 1.234v41.245c0 .679.55 1.234 1.24 1.234h5.513c.616 0 1.137-.453 1.225-1.059l.397-2.746c2.789 3.557 6.187 4.404 9.945 4.404 8.792 0 14.796-6.215 14.796-15.51.007-9.655-6.121-15.504-14.914-15.504Zm-.925 23.17c-4.25 0-7.699-3.431-7.699-7.66 0-4.235 3.45-7.66 7.7-7.66 4.256 0 7.699 3.432 7.699 7.66 0 4.229-3.45 7.66-7.7 7.66ZM104.822 2.417c-1.262 0-2.158.555-2.613 1.234V.234a.231.231 0 0 0-.235-.234H100.572a.23.23 0 0 0-.234.234V10.567c0 .117.095.219.22.219h1.299a.22.22 0 0 0 .22-.22V9.458c.536.832 1.497 1.321 2.76 1.321 2.429 0 3.794-1.89 3.794-4.177-.015-2.293-1.387-4.184-3.809-4.184Zm-.382 6.748c-1.431 0-2.297-1.125-2.297-2.556 0-1.46.866-2.57 2.297-2.57 1.417 0 2.298 1.11 2.298 2.57 0 1.431-.881 2.556-2.298 2.556ZM124.712 2.417c-1.336 0-2.173.614-2.518 1.242v-.833a.22.22 0 0 0-.22-.219h-.565c-.029 0-.051-.007-.081-.007-.029 0-.058.007-.08.007h-.565a.22.22 0 0 0-.221.22V10.544c0 .131.103.233.235.233H122.099a.231.231 0 0 0 .235-.233V5.959c0-1.256.756-1.986 1.952-1.972a1.617 1.617 0 0 1 1.593 1.614v4.944c0 .131.103.233.235.233H127.508a.231.231 0 0 0 .235-.233V5.572c.007-1.862-1.049-3.155-3.031-3.155ZM133.483 4.031c.924 0 1.622.504 1.901 1.256a.13.13 0 0 0 .022.037.235.235 0 0 0 .22.167H137.02a.231.231 0 0 0 .235-.233s-.029-.46-.382-1.066c-.007-.008-.007-.022-.014-.03-.008-.014-.022-.029-.03-.043-.014-.03-.036-.059-.051-.088a3.541 3.541 0 0 0-1.101-1.052v.008c-.58-.35-1.299-.577-2.187-.577-2.407 0-4.081 1.862-4.081 4.191 0 2.308 1.674 4.177 4.081 4.177.888 0 1.615-.226 2.187-.576v.007s.661-.358 1.101-1.052c.015-.022.022-.043.037-.058l.044-.066c.007-.014.014-.029.022-.05.345-.6.374-1.06.374-1.06a.231.231 0 0 0-.235-.233h-1.402a.235.235 0 0 0-.227.175c-.007.014-.015.022-.022.036-.279.752-.976 1.256-1.901 1.256-1.336 0-2.187-1.066-2.187-2.556.014-1.504.866-2.57 2.202-2.57ZM142.796 2.417c-2.598 0-4.235 1.943-4.235 4.192s1.637 4.177 4.235 4.177c2.613 0 4.257-1.928 4.257-4.177 0-2.25-1.636-4.192-4.257-4.192Zm0 6.748c-1.357 0-2.363-1.015-2.363-2.556 0-1.556 1.006-2.57 2.363-2.57 1.373 0 2.378 1.014 2.378 2.57.008 1.54-1.005 2.556-2.378 2.556ZM117.967 2.607h-1.299a.22.22 0 0 0-.22.22v.926c-.521-.832-1.483-1.321-2.753-1.321-2.407 0-3.779 1.891-3.779 4.177 0 2.285 1.372 4.177 3.779 4.177 1.277 0 2.239-.49 2.76-1.322v1.103c0 .117.095.219.22.219h1.299a.22.22 0 0 0 .221-.22V2.827a.233.233 0 0 0-.228-.219Zm-3.875 6.558c-1.417 0-2.297-1.125-2.297-2.556 0-1.432.88-2.556 2.297-2.556 1.431 0 2.297 1.124 2.297 2.556 0 1.431-.866 2.556-2.297 2.556Z" fill="#FA6300"/><path d="M14.745 19.206a2.436 2.436 0 0 1 2.804-2.403c7.846 1.176 13.871 7.909 13.871 16.044 0 12.72-10.253 15.466-14.679 16.058-1.064.146-1.996-.709-1.996-1.775 0 0-.007-20.564 0-27.924Z" fill="#462A71"/><path d="M1.835 33.854h7.303c3.097 0 5.607-2.497 5.607-5.579V3.2a1.8 1.8 0 0 0-1.806-1.797H9.534C4.272 1.402 0 5.652 0 10.888v21.14a1.83 1.83 0 0 0 1.835 1.826ZM152.888 42.676c4.477-2.286 6.466-6.375 6.591-10.706 0-3.65-.962-6.667-2.569-9.047l2.796-3.206a1.249 1.249 0 0 0-.198-1.804l-4.499-3.44a1.265 1.265 0 0 0-1.783.249l-2.393 3.14c-2.341-1.066-4.976-1.607-7.662-1.607-8.573.008-16.588 5.2-16.588 15.591 0 9.464 6.533 15.401 16.602 15.401 5.534 0 7.465 2.286 7.465 5.258 0 3.775-3.604 5.63-7.589 5.63-3.795 0-6.892-1.27-7.589-5.17-.103-.592-.639-1.022-1.241-1.022h-5.915a1.27 1.27 0 0 0-1.27 1.336c.433 7.982 5.93 12.714 16.015 12.714 8.455 0 16.66-4.39 16.66-13.488.007-1.79.007-6.799-6.833-9.83Zm-9.827-3.36c-4.25 0-7.692-3.424-7.692-7.652 0-4.229 3.442-7.653 7.692-7.653 4.249 0 7.691 3.425 7.691 7.653.008 4.228-3.442 7.653-7.691 7.653Z" fill="#FA6300"/></g><defs><clipPath id="a"><path d="M0 9a9 9 0 0 1 9-9h142a9 9 0 0 1 9 9v48a9 9 0 0 1-9 9H9a9 9 0 0 1-9-9V9Z" fill="#fff"/></clipPath></defs></svg>