<svg width="181" height="35" viewBox="0 0 181 35" fill="none" xmlns="http://www.w3.org/2000/svg"><g clip-path="url(#a)" fill="#242424"><path d="M91.278 30.44c-1.462 1.481-3.298 2.23-5.456 2.23h-9.82V16.805h9.403c2.395 0 4.317.746 5.878 2.283 1.509 1.485 2.273 3.462 2.273 5.88-.001 2.173-.746 3.962-2.278 5.472ZM76 2.33h8.522c3.981 0 6.761 2.754 6.761 6.7 0 1.9-.64 3.496-1.902 4.737-1.23 1.21-2.865 1.827-4.859 1.827H76V2.33Zm12.26 13.653c2.648-1.253 4.252-3.83 4.252-6.953 0-2.328-.765-4.238-2.269-5.667-1.461-1.489-3.387-2.243-5.72-2.243H74.92a.15.15 0 0 0-.152.15v32.464a.15.15 0 0 0 .152.148h10.9c2.517 0 4.662-.877 6.37-2.607 1.72-1.743 2.592-3.864 2.592-6.307 0-4.423-2.525-7.842-6.523-8.985ZM22.677 23.398c-1.173.994-2.533 1.489-4.08 1.489-1.987 0-3.596-.681-4.83-2.044-1.236-1.362-1.854-3.143-1.854-5.345 0-2.216.613-4.005 1.841-5.368 1.227-1.362 2.842-2.043 4.842-2.043 1.455 0 2.768.45 3.94 1.35 1.174.9 2.002 2.09 2.487 3.568h11.42c-.594-4.48-2.533-8.1-5.816-10.863C27.343 1.382 23.317 0 18.55 0c-3.532 0-6.713.751-9.544 2.251-2.83 1.5-5.037 3.586-6.625 6.257C.793 11.178 0 14.175 0 17.5c0 3.325.793 6.322 2.38 8.992 1.586 2.67 3.795 4.756 6.625 6.257 2.83 1.5 6.012 2.251 9.544 2.251 4.847 0 8.926-1.432 12.24-4.293 3.315-2.863 5.237-6.603 5.769-11.222H24.974c-.36 1.617-1.124 2.921-2.297 3.913ZM56.195 25.492c-.812.799-1.861 1.197-3.152 1.197-1.291 0-2.343-.398-3.153-1.197-.81-.798-1.217-1.833-1.217-3.104 0-1.271.405-2.313 1.217-3.129.81-.814 1.862-1.22 3.153-1.22 1.29 0 2.342.406 3.152 1.22.81.815 1.215 1.858 1.215 3.129s-.405 2.306-1.215 3.104Zm7.596-11.194c-2.251-2.085-5.155-3.128-8.713-3.128-.364 0-.86.017-1.49.048l6.3-10.1-11.252.003L43.31 9.68c-1.505 2.427-2.62 4.663-3.34 6.709-.72 2.045-1.08 4.077-1.08 6.097 0 3.698 1.311 6.709 3.936 9.032C45.448 33.838 48.854 35 53.04 35c4.236 0 7.65-1.156 10.24-3.47 2.591-2.315 3.887-5.362 3.887-9.142 0-3.306-1.125-6.003-3.377-8.09ZM180.971 33.646l-12.794-17.651 12.747-14.631a.15.15 0 0 0 .036-.096.15.15 0 0 0-.152-.15h-1.2a.155.155 0 0 0-.117.053l-17.523 20.11V1.268a.15.15 0 0 0-.151-.15h-.908a.151.151 0 0 0-.152.15v32.464c0 .083.067.15.152.15h.908a.15.15 0 0 0 .151-.15V23.086l5.396-6.134 12.217 16.865a.152.152 0 0 0 .125.065h1.144a.15.15 0 0 0 .15-.15.138.138 0 0 0-.029-.086ZM153.088 1.118h-.927a.15.15 0 0 0-.151.15v29.72L130.19 1.18a.155.155 0 0 0-.123-.062h-.587a.15.15 0 0 0-.152.15v32.464c0 .083.067.148.152.148h.926a.15.15 0 0 0 .152-.148V3.778l21.99 30.04a.15.15 0 0 0 .121.062h.417a.15.15 0 0 0 .152-.148V1.268a.149.149 0 0 0-.15-.15ZM103.525 22.534l7.395-19.078 7.396 19.078h-14.791Zm20.336 11.145L111.356 1.216a.154.154 0 0 0-.142-.098h-.585c-.065 0-.12.04-.142.097L97.981 33.678a.15.15 0 0 0 .142.203h.964c.064 0 .12-.04.141-.097l3.85-10.04h15.69l3.848 10.038a.15.15 0 0 0 .142.098h.962a.15.15 0 0 0 .151-.15.235.235 0 0 0-.01-.05Z"/></g><defs><clipPath id="a"><path fill="#fff" d="M0 0h181v35H0z"/></clipPath></defs></svg>