<svg width="206" height="66" viewBox="0 0 206 66" fill="none" xmlns="http://www.w3.org/2000/svg"><path d="M3.163 24.302C1.225 22.334 0 19.453 0 15.888c0-3.423 1.197-6.304 3.078-8.33 1.88-2.024 4.445-3.194 7.152-3.194 4.845 0 8.264 3.394 8.293 6.332 0 1.57-.998 2.796-2.337 2.796-.656 0-1.283-.229-1.739-.656-.455-.428-.74-1.056-.74-1.826 0-.913.456-1.483.826-1.882-.627-1.113-1.91-2.026-3.875-2.026-1.682 0-3.106.885-4.104 2.396-1.026 1.54-1.624 3.737-1.624 6.333 0 2.595.627 4.791 1.681 6.332 1.055 1.54 2.48 2.396 4.16 2.396 1.967 0 3.25-.913 3.876-2.025-.342-.4-.826-.942-.826-1.854 0-.77.285-1.398.74-1.826.457-.428 1.083-.656 1.739-.656 1.34 0 2.336 1.198 2.336 2.767-.028 2.938-3.448 6.332-8.292 6.332-2.678.029-5.272-1.055-7.18-2.995Zm0 0C1.225 22.334 0 19.453 0 15.888c0-3.423 1.197-6.304 3.078-8.33 1.88-2.024 4.445-3.194 7.152-3.194 4.845 0 8.264 3.394 8.293 6.332 0 1.57-.998 2.796-2.337 2.796-.656 0-1.283-.229-1.739-.656-.455-.428-.74-1.056-.74-1.826 0-.913.456-1.483.826-1.882-.627-1.113-1.91-2.026-3.875-2.026-1.682 0-3.106.885-4.104 2.396-1.026 1.54-1.624 3.737-1.624 6.333 0 2.595.627 4.791 1.681 6.332 1.055 1.54 2.48 2.396 4.16 2.396 1.967 0 3.25-.913 3.876-2.025-.342-.4-.826-.942-.826-1.854 0-.77.285-1.398.74-1.826.457-.428 1.083-.656 1.739-.656 1.34 0 2.336 1.198 2.336 2.767-.028 2.938-3.448 6.332-8.292 6.332-2.678.029-5.272-1.055-7.18-2.995Zm0 0C1.225 22.334 0 19.453 0 15.888c0-3.423 1.197-6.304 3.078-8.33 1.88-2.024 4.445-3.194 7.152-3.194 4.845 0 8.264 3.394 8.293 6.332 0 1.57-.998 2.796-2.337 2.796-.656 0-1.283-.229-1.739-.656-.455-.428-.74-1.056-.74-1.826 0-.913.456-1.483.826-1.882-.627-1.113-1.91-2.026-3.875-2.026-1.682 0-3.106.885-4.104 2.396-1.026 1.54-1.624 3.737-1.624 6.333 0 2.595.627 4.791 1.681 6.332 1.055 1.54 2.48 2.396 4.16 2.396 1.967 0 3.25-.913 3.876-2.025-.342-.4-.826-.942-.826-1.854 0-.77.285-1.398.74-1.826.457-.428 1.083-.656 1.739-.656 1.34 0 2.336 1.198 2.336 2.767-.028 2.938-3.448 6.332-8.292 6.332-2.678.029-5.272-1.055-7.18-2.995Zm69.815-7.616c.314 0 .4-.085.456-.17.057-.115.085-.315.085-.571-.028-1.512-1.196-2.91-2.992-2.91-2.28 0-3.191 1.826-3.334 3.651h5.785ZM27.955 19.31c-1.739.029-2.907.828-2.907 2.453 0 1.54 1.054 2.568 2.65 2.568 1.055 0 2.109-.57 2.793-1.427V20.68c0-.314-.2-.628-.627-.913-.428-.285-1.083-.457-1.91-.457Zm66.253-.912c0 4.335 1.88 6.19 3.733 6.218 2.108 0 3.647-1.854 3.647-5.505 0-1.911-.427-3.423-1.111-4.45-.684-1.027-1.625-1.569-2.707-1.569-2.195-.057-3.562 1.911-3.562 5.306ZM39.239 26.64c-.684-.2-1.111-.57-1.111-1.112 0-.229.057-.457.17-.713l.03-.086.085-.029c.256-.057.684-.17 1.082-.485.4-.342.57-.798.57-2.11v-6.59c-.028-1.112-.285-1.511-1.225-1.511-.2 0-.456.029-.74.086l-.143.028-.057-.143a1.675 1.675 0 0 1-.143-.713c.029-1.312 1.454-1.996 2.45-2.281.371-.115.742-.172 1.084-.172 1.339 0 2.051.942 2.365 2.14.883-1.398 2.251-2.31 3.59-2.34 1.254 0 2.565.828 2.565 2.425 0 1.113-.798 2.31-2.137 2.31-.97 0-1.824-.655-2.023-1.597-.741.257-1.824 1.198-1.824 4.45v3.965c0 1.312.2 1.768.598 2.11.37.286 1.14.428 1.425.485l.085.029.029.085c.114.286.2.514.2.77 0 .543-.4.913-1.055 1.085-.655.2-1.596.256-2.878.256-1.31-.057-2.308-.142-2.992-.342Zm13.165 0c-.684-.2-1.111-.57-1.111-1.112 0-.229.057-.457.17-.713l.03-.086.085-.029c.256-.057.684-.17 1.082-.485.4-.342.57-.798.57-2.11v-6.59c-.028-1.112-.284-1.511-1.196-1.511-.2 0-.456.029-.741.086l-.143.028-.057-.143a1.675 1.675 0 0 1-.142-.713c.028-1.312 1.453-1.996 2.45-2.281.37-.115.741-.172 1.083-.172 1.34 0 2.052.942 2.337 2.14.855-1.398 2.251-2.34 3.59-2.34 1.254 0 2.537.828 2.565 2.425 0 1.113-.798 2.31-2.137 2.31-.969 0-1.824-.655-2.023-1.597-.741.257-1.824 1.198-1.824 4.45v3.965c0 1.312.2 1.768.598 2.11.37.286 1.14.428 1.425.485l.086.029.028.085c.114.286.2.514.2.77 0 .543-.4.913-1.026 1.085-.656.2-1.596.256-2.878.256-1.34-.057-2.308-.142-3.02-.342Zm27.898 0c-.684-.2-1.112-.57-1.112-1.141 0-.228.057-.456.171-.713l.029-.086.085-.028c.257-.057.684-.171 1.083-.485.399-.342.57-.799.57-2.11v-8.643l-2.337-.086-.028-.114a2.262 2.262 0 0 1-.171-.827c0-.856.655-1.398 1.482-1.398H81.1v-.97c0-2.31.427-3.65 1.025-4.535.912-1.426 2.48-2.367 4.873-2.367 3.02 0 5.557 1.397 5.557 3.65 0 .97-.684 2.197-2.109 2.197-1.054 0-2.052-.884-2.052-2.025 0-.4.143-.827.342-1.141-.313-.285-.912-.457-1.51-.457-.94 0-1.453.314-1.767.856-.313.542-.427 1.34-.427 2.225v2.51h3.99l.056.114c.114.285.171.57.171.827 0 .856-.627 1.512-1.396 1.598-.285.028-.598.028-.883.028-.656 0-1.311-.057-1.824-.057v8.614c0 1.312.228 1.769.598 2.11.342.286 1.34.429 1.625.486h.085l.029.143c.114.228.17.456.17.655 0 .6-.484.97-1.225 1.17-.74.2-1.795.285-3.134.285-1.283 0-2.308-.085-2.992-.285Zm47.531 0c-.684-.2-1.112-.57-1.112-1.112 0-.229.057-.457.171-.713l.029-.086.085-.029c.257-.057.713-.17 1.083-.485.399-.342.57-.798.57-2.11v-6.59c-.028-1.112-.285-1.511-1.197-1.511-.199 0-.456.029-.741.086l-.142.028-.057-.143c-.086-.256-.143-.484-.143-.713.029-1.312 1.454-1.996 2.423-2.31.399-.114.74-.171 1.082-.171 1.311 0 2.024.941 2.337 2.168.855-1.426 2.251-2.368 3.591-2.368 1.282 0 2.564.827 2.564 2.425 0 1.112-.798 2.31-2.108 2.31-.998 0-1.853-.656-2.024-1.597-.741.256-1.795 1.198-1.823 4.45v3.964c0 1.312.199 1.769.569 2.111.399.285 1.169.428 1.425.485l.086.028.028.086c.114.285.2.542.2.77 0 .542-.399.913-1.026 1.084-.656.2-1.596.257-2.878.257-1.311-.029-2.308-.114-2.992-.314Zm-30.063.485c-2.223 0-4.218-.827-5.7-2.282-1.453-1.455-2.365-3.537-2.365-5.99 0-4.906 3.847-8.215 8.207-8.243 2.337 0 4.36.827 5.813 2.282 1.425 1.454 2.28 3.508 2.28 5.961 0 2.453-.883 4.535-2.365 5.99-1.482 1.455-3.534 2.282-5.87 2.282Zm-34.794-7.958c0-2.482.826-4.621 2.251-6.133 1.425-1.511 3.477-2.424 5.87-2.424 2.195 0 3.819.798 4.902 1.996a6.166 6.166 0 0 1 1.567 4.08c0 .826-.171 1.597-.541 2.224l-.057.086h-9.832c.171 2.852 1.995 4.849 5.158 4.877 1.938 0 3.448-1.084 3.933-1.711l.114-.143.142.114c.285.2.599.57.57 1.284 0 1.654-1.938 3.765-6.212 3.765-4.331-.029-7.865-3.509-7.865-8.015Zm56.621 7.273c-.285-.399-.456-.912-.569-1.483-.171.171-.342.37-.627.656-1.055.998-2.423 1.569-3.99 1.569-1.681 0-3.134-.656-4.046-1.74-1.425-1.683-1.397-3.822-1.397-6.846V15.66c-.028-1.17-.398-1.597-1.51-1.625-.142 0-.285 0-.456.028l-.142.029-.057-.114a1.716 1.716 0 0 1-.114-.628c.028-1.398 1.824-2.168 2.878-2.396.37-.057.712-.114 1.054-.114.855 0 1.482.285 1.881.77.399.485.57 1.17.57 1.968l-.029 4.992c0 1.854.143 3.223.542 4.107.427.884 1.026 1.284 2.194 1.312 1.254 0 1.995-.542 2.479-1.34.485-.799.656-1.883.656-2.91V15.66c-.029-1.17-.399-1.597-1.511-1.625-.142 0-.313 0-.456.028l-.142.029-.057-.114c-.086-.229-.143-.428-.143-.628.029-1.398 1.824-2.168 2.878-2.396.371-.057.713-.114 1.055-.114.855 0 1.482.285 1.881.77.398.485.569 1.17.569 1.968 0 .57-.057 1.598-.057 5.847 0 1.797-.028 2.739-.028 3.053.028 1.226.427 1.768 1.567 1.796.114 0 .257 0 .399-.028l.143-.029.057.115c.085.228.142.427.142.627-.028 1.37-1.824 1.94-2.878 2.14-.37.056-.684.113-.969.113h-.028c-.855-.028-1.397-.313-1.739-.77Zm-98.852-4.42c0-1.57.684-2.853 1.852-3.709C23.766 17.456 25.39 17 27.271 17c1.168 0 2.393.228 3.22.57v-1.768c-.029-1.768-.684-2.795-2.679-2.795-.37 0-1.197.085-1.88.342.056.257.113.513.113.77 0 .6-.2 1.141-.541 1.54-.37.4-.883.656-1.539.656-1.14 0-2.023-.94-2.023-2.11.029-2.168 2.65-3.594 6.127-3.623 2.764 0 4.502.656 5.442 1.854.855 1.084.884 2.653.884 4.85v5.761c.028 1.112.655 1.426 2.023 1.626l.17.028v.171c-.085 1.512-1.196 2.14-2.393 2.254-.114 0-.2.028-.313.028-1.169 0-2.308-.57-2.85-1.768-.74.627-2.422 1.797-4.588 1.797-3.248 0-5.699-2.168-5.699-5.163Z" fill="#2B64AF"/><path d="M165.903 1.284c.114-.086.2-.143.285-.143.143 0 .257.143.257.285 0 .086-.057.2-.143.285-3.647 4.536-6.298 9.841-6.298 17.2 0 7.36 2.651 12.55 6.298 17.086.086.085.143.2.143.285 0 .171-.086.285-.257.285-.085 0-.171-.028-.285-.142l-15.559-15.06c-.769-.657-1.282-1.455-1.282-2.54 0-1.112.484-1.882 1.282-2.538l15.559-15.003Z" fill="#00B0E7"/><path d="M177.843 0c-6.098 0-8.463 8.643-8.463 18.911 0 10.297 2.365 18.797 8.463 18.797 3.647 0 6.754-2.14 6.782-3.908 0-.37-.142-.741-.456-1.083-1.738-1.683-2.394-3.338-2.422-4.821 0-2.824 2.422-4.906 4.673-4.906 3.106 0 4.93 2.425 4.93 5.59 0 2.996-1.282 5.477-2.65 7.474a.461.461 0 0 0-.086.256c0 .143.086.286.228.286.086 0 .171-.057.285-.143l15.559-15.06c.769-.656 1.282-1.427 1.282-2.539s-.484-1.883-1.282-2.538L189.127 1.284c-.114-.115-.199-.143-.285-.143-.142 0-.228.143-.228.285 0 .086.029.171.086.257 1.368 1.997 2.65 4.478 2.65 7.473 0 3.166-1.824 5.59-4.93 5.59-2.251 0-4.702-2.11-4.673-4.905 0-1.484.684-3.138 2.422-4.82.314-.315.456-.685.456-1.085C184.597 2.14 181.49 0 177.843 0Z" fill="#2B64AF"/><path d="M59.443 43.555c.712.457 2.023 1.056 3.106 1.056.912 0 1.652-.4 1.652-1.398 0-.998-.826-1.283-1.852-1.597-1.596-.456-3.39-.97-3.39-3.252s1.88-3.48 3.988-3.48c1.653 0 3.05.656 3.962 1.54l-1.254 1.54c-.827-.712-1.739-1.169-2.65-1.169-.798 0-1.54.4-1.54 1.255 0 .999.913 1.284 1.938 1.598 1.596.513 3.363 1.14 3.363 3.394 0 2.282-1.681 3.508-4.132 3.508-1.88 0-3.42-.684-3.99-1.112l.799-1.883ZM72.864 34.884c1.624 0 4.76.514 4.76 5.534 0 4.193-2.224 6.104-5.102 6.104-2.935 0-4.73-1.883-4.73-5.819 0-4.535 2.85-5.819 5.072-5.819Zm2.109 5.876c0-2.453-.57-3.965-2.223-3.965-1.596 0-2.308 1.484-2.308 3.594 0 2.025.314 4.222 2.28 4.222 1.567 0 2.251-1.569 2.251-3.85ZM82.068 31.034v11.58c0 1.37.285 1.854 1.169 1.854.427 0 .912-.142 1.367-.342l.57 1.74c-.598.37-1.652.656-2.593.656-2.935 0-3.134-1.74-3.134-3.366V31.034h2.621ZM94.949 35.227v9.156l.17 1.825h-2.222l-.143-1.283h-.085c-.741 1.083-1.91 1.597-3.163 1.597-2.394 0-3.59-1.255-3.59-3.85v-7.445h2.593v6.96c0 1.34.227 2.31 1.71 2.31 1.168 0 2.165-1.056 2.165-2.111v-7.188l2.565.029ZM102.243 44.44c-1.937 0-2.764-1.512-2.764-3.765 0-2.482 1.026-3.68 2.479-3.68.998 0 1.767.656 2.337 1.37l1.653-1.37c-1.026-1.512-2.593-2.082-4.018-2.082-2.308 0-5.044 1.483-5.044 5.876 0 2.995 1.197 4.877 3.334 5.505l-1.482 3.337h1.995l1.368-3.08c1.539-.058 2.849-.6 3.676-1.256l-.969-1.74c-.94.6-1.71.885-2.565.885ZM111.619 34.884c1.624 0 4.759.514 4.759 5.534 0 4.193-2.223 6.104-5.101 6.104-2.935 0-4.731-1.883-4.731-5.819-.028-4.535 2.822-5.819 5.073-5.819Zm-3.277-3.965c.598-.427 1.253-.627 1.823-.627 1.14 0 1.938.57 2.935.57.456 0 .941-.142 1.368-.399l.171 1.769c-.456.256-.883.427-1.482.427-.997 0-2.137-.513-3.02-.513-.599 0-1.083.143-1.624.456l-.171-1.682Zm5.357 9.841c0-2.453-.57-3.965-2.223-3.965-1.596 0-2.308 1.484-2.308 3.594 0 2.025.314 4.222 2.28 4.222 1.567 0 2.251-1.569 2.251-3.85ZM126.437 37.908c0 3.366-4.161 3.793-6.184 3.822.085 1.426.883 2.795 2.764 2.795 1.282 0 2.223-.599 2.736-.97l.797 1.74c-.341.314-1.795 1.227-3.846 1.227-3.591 0-5.101-2.31-5.101-5.59 0-3.224 1.852-6.048 5.329-6.048 2.165 0 3.505 1.084 3.505 3.024Zm-3.619-1.17c-1.739 0-2.565 1.712-2.651 3.309 1.169.029 3.961-.342 3.961-2.025-.028-.799-.541-1.284-1.31-1.284ZM128.403 43.555c.712.457 1.994 1.056 3.106 1.056.911 0 1.652-.4 1.652-1.398 0-.998-.826-1.283-1.852-1.597-1.596-.456-3.391-.97-3.391-3.252s1.881-3.48 3.99-3.48c1.652 0 3.049.656 3.96 1.54l-1.253 1.54c-.827-.712-1.739-1.169-2.65-1.169-.798 0-1.539.4-1.539 1.255 0 .999.912 1.284 1.937 1.598 1.596.513 3.363 1.14 3.363 3.394 0 2.282-1.681 3.508-4.132 3.508-1.881 0-3.419-.684-3.989-1.112l.798-1.883ZM47.702 49.09c.884 0 1.51.655 1.51 1.454 0 .827-.626 1.426-1.51 1.426-.912 0-1.51-.599-1.51-1.426 0-.799.627-1.455 1.51-1.455ZM46.42 64.691V53.71h2.593v10.982H46.42ZM51.464 64.691v-9.099l-.171-1.91h2.194l.228 1.368c.77-1.083 1.91-1.711 3.362-1.711 2.195 0 3.477 1.227 3.477 3.794v7.501H57.96v-6.96c0-1.34-.228-2.367-1.624-2.367a2.22 2.22 0 0 0-2.223 2.196v7.103l-2.65.085ZM71.924 62.58l.2 2.083h-2.252l-.142-1.17-.086-.028c-.684.998-1.795 1.455-2.992 1.455-3.078 0-4.274-2.197-4.274-5.306 0-3.85 1.909-6.303 5.67-6.303.713 0 2.308.17 3.876.77v8.5Zm-2.593-7.016c-.342-.143-.97-.285-1.625-.285-2.08 0-2.764 1.94-2.764 4.307 0 1.825.428 3.537 2.28 3.537 1.368 0 2.137-.97 2.137-1.911l-.028-5.648ZM74.403 64.691v-9.099l-.17-1.91h2.193l.228 1.368c.77-1.083 1.91-1.711 3.363-1.711 2.194 0 3.476 1.227 3.476 3.794v7.501H80.9v-6.96c0-1.34-.228-2.367-1.624-2.367a2.22 2.22 0 0 0-2.223 2.196v7.103l-2.65.085ZM93.182 61.982l.997 1.74c-.855.713-2.194 1.255-3.79 1.255-3.22 0-5.072-2.026-5.072-5.734 0-4.392 2.735-5.875 5.044-5.875 1.424 0 2.992.57 4.017 2.082l-1.652 1.369c-.57-.685-1.368-1.37-2.337-1.37-1.453 0-2.479 1.199-2.479 3.709 0 2.282.826 3.765 2.764 3.765.826 0 1.596-.285 2.508-.941ZM103.326 56.42c0 3.365-4.16 3.793-6.183 3.822.085 1.426.883 2.795 2.735 2.795 1.283 0 2.223-.599 2.736-.97l.798 1.712c-.342.313-1.796 1.226-3.847 1.226-3.59 0-5.101-2.31-5.101-5.59 0-3.224 1.852-6.047 5.329-6.047 2.194 0 3.533 1.083 3.533 3.052Zm-3.619-1.198c-1.738 0-2.564 1.711-2.65 3.308 1.168.029 3.961-.342 3.961-2.025 0-.799-.541-1.283-1.31-1.283ZM106.233 49.09c.883 0 1.51.655 1.51 1.454 0 .827-.627 1.426-1.51 1.426-.912 0-1.51-.599-1.51-1.426 0-.799.626-1.455 1.51-1.455Zm-1.283 15.602V53.71h2.594v10.982h-2.594ZM112.616 64.691h-2.593v-9.213l-.2-1.768h2.137l.257 1.597c.484-1.255 1.539-1.91 2.65-1.91.655 0 1.254.142 1.738.427l-.456 2.196c-.484-.256-.968-.428-1.538-.428-1.169 0-1.938.942-1.995 2.197v6.902ZM126.123 62.58l.199 2.083h-2.251l-.142-1.17-.086-.028c-.684.998-1.795 1.455-2.992 1.455-3.077 0-4.274-2.197-4.274-5.306 0-3.85 1.909-6.303 5.67-6.303.713 0 2.309.17 3.876.77v8.5Zm-2.565-7.016c-.313-.143-.969-.285-1.624-.285-2.08 0-2.764 1.94-2.764 4.307 0 1.825.427 3.537 2.28 3.537 1.367 0 2.137-.97 2.137-1.911l-.029-5.648ZM128.403 62.039c.712.456 1.994 1.055 3.106 1.055.911 0 1.652-.428 1.652-1.398s-.826-1.283-1.852-1.597c-1.596-.456-3.391-.97-3.391-3.252s1.881-3.48 3.99-3.48c1.652 0 3.049.657 3.96 1.54l-1.253 1.541c-.827-.713-1.739-1.17-2.65-1.17-.798 0-1.539.4-1.539 1.256 0 .998.912 1.283 1.937 1.597 1.596.513 3.363 1.14 3.363 3.394 0 2.282-1.681 3.509-4.132 3.509-1.881 0-3.419-.685-3.989-1.113l.798-1.882ZM38.498 53.054v11.638h2.593v-8.985h3.22V53.68h-3.22v-.798c0-1.198.4-1.826 1.51-1.826.599 0 1.454.228 2.08.542l.628-1.74c-.741-.4-2.08-.77-3.021-.77-3.391 0-3.79 2.225-3.79 3.965Z" fill="#00B0E7"/></svg>