<svg width="125" height="72" viewBox="0 0 125 72" fill="none" xmlns="http://www.w3.org/2000/svg"><path fill-rule="evenodd" clip-rule="evenodd" d="M62.215 30.78c17.473 0 32.072-7.5 31.794-15.652C93.731 6.975 79.715 0 62.216 0 44.667 0 30.196 6.731 30.196 15.128c0 8.428 14.47 15.652 32.019 15.652Zm-29.45-15.775C33.015 7.509 46 1.404 62.088 1.404c16.027 0 29.132 6.195 29.285 13.82.153 7.624-13.105 14.194-29.158 14.194-16.093 0-29.726-6.908-29.45-14.413Z" fill="#131E3D"/><path fill-rule="evenodd" clip-rule="evenodd" d="M60.033 24.46c-.969-.091-1.775-.244-2.049-.495-.435-.379-.653-1.084-.653-2.076v-5.024h9.513v5.024c0 .992-.213 1.697-.622 2.076-.31.25-1.082.398-2.041.495v1.175h8.893V24.46c-.993-.091-1.767-.244-2.041-.495-.435-.379-.657-1.084-.657-2.076V8.896c0-1.026.222-1.703.657-2.079.274-.25 1.05-.397 2.041-.496V5.148h-8.893v1.178c.959.095 1.731.246 2.041.496.409.375.622 1.053.622 2.08v5.019H57.33V8.897c0-1.026.218-1.703.653-2.079.274-.25 1.08-.397 2.049-.496V5.148h-8.901v1.178c.96.095 1.767.246 2.049.496.429.375.651 1.053.651 2.08v12.987c0 .992-.222 1.697-.651 2.076-.282.25-1.088.398-2.05.495v1.175h8.902V24.46ZM59.048 41.414v-1.39h-9.947v1.39c1.205.092 1.612.304 2.09.596.693.449 1.291 1.261 1.835 2.468l8.643 19.776h.933l8.604-19.776c.52-1.207 1.118-2.02 1.805-2.468.488-.3.921-.512 2.094-.596v-1.39h-9.941l.024 1.39c1.086.092 1.931.304 2.144.596.294.449.199 1.261-.31 2.468a557.306 557.306 0 0 0-4.003 9.211l-.633 1.448-.268.595-.244-.595-.628-1.448a1435.46 1435.46 0 0 1-4.032-9.21c-.546-1.208-.64-2.02-.336-2.469.216-.292 1.058-.504 2.17-.596ZM4.398 62.249c-.332.298-1.267.512-2.408.625v1.39h10.523v-1.39c-1.138-.113-2.075-.327-2.405-.625-.514-.425-.754-1.237-.754-2.444v-5.927h11.282v5.927c0 1.207-.256 2.019-.779 2.444-.33.298-1.258.512-2.404.625v1.39h10.523v-1.39c-1.141-.113-2.073-.327-2.402-.625-.514-.425-.753-1.237-.753-2.444V44.486c0-1.207.239-2.021.753-2.468.33-.3 1.26-.514 2.402-.596v-1.39H17.453v1.39c1.146.09 2.075.304 2.404.596.523.447.779 1.261.779 2.468v5.91H9.362v-5.91c0-1.207.24-2.021.754-2.468.33-.3 1.267-.514 2.405-.596v-1.39H1.997v1.39c1.142.09 2.077.304 2.409.596.512.447.782 1.261.782 2.468v15.319c-.008 1.207-.278 2.019-.79 2.444ZM98.12 62.249c-.316.298-.852.512-1.904.625v1.39h9.373v-1.39c-1.05-.113-1.928-.327-2.229-.625-.475-.425-.691-1.237-.691-2.444v-12.19c4.336 5.516 9.004 10.97 13.068 16.651h3.88v-19.78c0-1.207.24-2.021.693-2.468.336-.3.86-.514 1.912-.596v-1.39h-9.381v1.39c1.058.09 1.931.304 2.231.596.443.447.693 1.26.693 2.468v13.76c-4.787-6.084-9.57-12.136-14.357-18.218h-5.192v1.39c1.052.09 1.588.304 1.904.596.454.447.697 1.26.697 2.468v15.319c0 1.21-.243 2.023-.697 2.448Z" fill="#131E3D"/><path d="M124.208 32.291H0v4.547h124.208V32.29Z" fill="#131E3D"/><path fill-rule="evenodd" clip-rule="evenodd" d="m42.73 40.029-8.638 19.776c-.509 1.207-1.112 2.02-1.811 2.442-.477.3-.878.516-2.085.63v1.39h9.918v-1.39c-1.088-.114-1.924-.33-2.14-.63-.328-.423-.2-1.235.3-2.442l.847-1.895h8.186l.813 1.895c.514 1.207.633 2.019.33 2.442-.241.3-1.053.516-2.163.63l-.032 1.39h9.948v-1.39c-1.206-.114-1.613-.33-2.061-.63-.693-.423-1.327-1.235-1.835-2.442l-8.653-19.776h-.923Zm-2.108 14.387c.88-1.986 1.72-3.938 2.593-5.897.842 1.96 1.714 3.913 2.556 5.897h-5.149ZM84.092 62.876l-.024 1.39h9.942v-1.39c-1.204-.113-1.605-.33-2.061-.627-.69-.425-1.319-1.237-1.831-2.444l-8.635-19.776h-.935L71.9 59.805c-.507 1.207-1.114 2.019-1.803 2.444-.485.298-.884.514-2.095.627v1.39h9.918v-1.39c-1.08-.113-1.924-.33-2.139-.627-.325-.425-.198-1.237.308-2.444l.838-1.893h8.192l.81 1.893c.513 1.207.634 2.019.326 2.444-.24.298-1.052.514-2.164.627Zm-5.657-8.46c.876-1.986 1.72-3.938 2.581-5.897.842 1.96 1.72 3.911 2.563 5.897h-5.144Z" fill="#131E3D"/><path d="M124.208 67.453H0V72h124.208v-4.547Z" fill="#131E3D"/></svg>