<svg width="158" height="57" viewBox="0 0 158 57" fill="none" xmlns="http://www.w3.org/2000/svg"><path d="M6.547 4.656c-.003.087-.003.187-.003.389v.751c0 .201 0 .304.003.389.096 2.532 2.261 4.564 4.959 4.653.092.004.2.004.414.004.215 0 .323 0 .415-.003 2.697-.09 4.863-2.122 4.958-4.653.003-.085.003-.186.003-.388v-.753c0-.202 0-.304-.003-.389-.095-2.53-2.261-4.563-4.958-4.653C12.243 0 12.135 0 11.92 0c-.215 0-.322 0-.414.003-2.698.09-4.863 2.122-4.959 4.653ZM75.728 22.614V43.37c0 3.608 1.402 5.235 5.827 5.235 1.855 0 3.678-.511 4.768-.898v8.364c-1.854.62-4.69.929-7.011.929C70.009 57 65.6 52.369 65.6 44.36V2.479h10.128v13.32h10.596v6.816H75.727Z" fill="#FF7A00"/><path fill-rule="evenodd" clip-rule="evenodd" d="M89.128 35.228c0-12.293 7.799-20.668 20.282-20.668 13.335 0 19.943 9.673 19.246 23.698H99.534c.526 7.195 3.923 10.842 9.939 10.842 5.086 0 7.785-2.437 8.948-5.885h9.894C126.392 51.669 119.658 57 109.408 57c-12.65 0-20.28-8.296-20.28-20.748v-1.024Zm20.204-12.61c-5.552 0-8.868 2.953-9.798 8.825l18.949-.155c-.542-5.479-3.522-8.67-9.151-8.67Z" fill="#FF7A00"/><path d="M45.889 14.56c-6.514 0-10.534 3.826-12.544 7.59l-.467-6.351h-9.661V55.76h10.128V33.3c0-6.629 3.537-10.687 8.882-10.687 5.344 0 7.323 3.516 7.323 9.603v23.544H59.68V30.049c.015-8.922-3.88-15.49-13.79-15.49ZM143.821 22.15c2.571-5.003 7.822-7.59 11.764-7.59.701 0 1.807.093 2.415.232v7.822a30.774 30.774 0 0 0-2.945-.155c-7.199 0-11.234 4.306-11.234 11.617v21.685h-10.129V15.799h9.817l.312 6.35ZM0 15.799v6.807h6.853v33.155h10.131V15.799H0Z" fill="#FF7A00"/></svg>