<svg width="131" height="71" viewBox="0 0 131 71" fill="none" xmlns="http://www.w3.org/2000/svg"><g clip-path="url(#a)"><path fill-rule="evenodd" clip-rule="evenodd" d="M.045 31.748C-.67 24.017 6.35 16.754 19.644 11.052c-.958 1.333-1.114 2.348-1.515 3.823-5.015 23.743 38.719 38.574 61.661 37.253C66.575 55.96 3.476 55.798.045 31.748ZM130.955 22.225c.725 7.732-6.295 14.995-19.599 20.696.958-1.332 1.114-2.348 1.516-3.833C117.886 15.345 74.152.513 51.199 1.835c13.226-3.823 76.325-3.67 79.756 20.39Z" fill="#DB6015"/><path fill-rule="evenodd" clip-rule="evenodd" d="M96.537 22.695h-5.894l-2.15 12.09h5.737l2.307-12.09ZM97.573 17.54c0-1.485-1.192-2.501-2.63-2.501-1.994 0-3.665 1.638-3.665 3.67 0 1.408 1.036 2.424 2.462 2.424 2.084 0 3.833-1.638 3.833-3.593ZM87.857 25.807c0-2.424-1.905-3.516-4.223-3.516-1.593 0-2.785.546-3.265 1.015l-.4-.622h-5.494l-2.228 12.1h5.894s1.549-7.666 1.694-8.55c.022-.12.044-.23.067-.34.167-.687.701-1.091 1.325-1.091.546 0 .992.47.892 1.103-.022.152-.045.327-.045.327l-1.627 8.563h5.895l1.437-8.039c.078-.393.078-.786.078-.95ZM71.857 25.654c0 .317-.078.7-.078 1.093l-1.349 8.038h-5.493l1.438-8.279s.055-.273.067-.611c.01-.732-.301-1.103-.87-1.103-.713 0-1.348.546-1.593 2.107l-1.437 7.886h-5.337l1.515-8.279c0-.153.078-.47.078-.622 0-.776-.312-1.092-1.036-1.092-.713 0-1.193.622-1.438 2.107l-1.515 7.886h-5.337l2.15-12.101h5.17l.323.622c.48-.47 1.672-1.015 3.176-1.015 1.593 0 2.708.47 3.42 1.485a6.801 6.801 0 0 1 4.302-1.485c2.172.01 3.766 1.026 3.844 3.363ZM40.324 17.267c-9.75 0-11.499 6.957-11.822 9.043-.936 5.144 2.318 8.693 8.613 8.791 3.209 0 10.73-.688 12.257-8.857.367-2.938.69-8.977-9.048-8.977Zm2.462 8.966c-.69 3.735-2.295 6.826-5.303 6.826-2.329 0-3.098-2.337-2.485-6.826.735-5.493 3.7-7.339 5.65-7.033 2.473.404 2.852 3.189 2.138 7.033Z" fill="#002D74"/><path d="M1.326 60.1h3.989c2.05 0 3.097 1.224 3.097 2.709 0 1.027-.534 1.758-1.482 2.075 1.471.328 2.24 1.365 2.24 2.741 0 1.857-1.259 3.244-3.565 3.244h-4.28V60.1Zm3.91 4.194c1.015 0 1.505-.557 1.505-1.365 0-.808-.468-1.365-1.538-1.365H3.042v2.72h2.195v.01Zm.268 5.09c1.326 0 1.95-.765 1.95-1.835 0-1.081-.68-1.835-2.039-1.835H3.042v3.67h2.462ZM13.605 65.397c-.892 0-1.404.383-1.772.787l-.936-.94c.602-.698 1.404-1.19 2.841-1.19 1.627 0 2.853.906 2.853 2.861v3.921h-1.627l.045-.95c-.49.71-1.126 1.092-2.129 1.092-1.337 0-2.44-.622-2.44-2.108 0-1.376 1.126-1.976 2.663-1.998h1.861c0-1.027-.479-1.475-1.36-1.475Zm-.38 2.61c-.712 0-1.18.252-1.18.841 0 .568.457.874 1.292.874.947 0 1.627-.459 1.627-1.19v-.524h-1.738ZM18.596 64.207h1.627l-.033 1.234c.423-.874 1.27-1.376 2.295-1.376 1.504 0 2.54 1.048 2.54 2.85v3.943H23.4v-3.812c0-.95-.457-1.507-1.404-1.507-1.07 0-1.76.634-1.76 1.715v3.604h-1.627v-6.651h-.012ZM26.686 67.538c0-1.977 1.549-3.462 3.621-3.462 1.27 0 2.095.47 2.741 1.267l-1.159.917c-.323-.459-.891-.775-1.582-.775-1.214 0-1.939.873-1.939 2.053s.725 2.053 1.939 2.053c.802 0 1.293-.328 1.66-.742l1.114.95c-.657.742-1.47 1.201-2.774 1.201-2.072 0-3.621-1.474-3.621-3.462ZM34.207 67.538c0-1.977 1.615-3.462 3.666-3.462 2.061 0 3.643 1.485 3.643 3.462S39.934 71 37.873 71c-2.05 0-3.666-1.485-3.666-3.462Zm5.638 0c0-1.223-.758-2.075-1.972-2.075-1.215 0-1.984.852-1.984 2.075 0 1.223.78 2.086 1.984 2.086 1.203 0 1.972-.874 1.972-2.086ZM53.572 67.429c.279-.645.435-1.42.435-2.338h1.537c0 1.41-.356 2.633-.936 3.572l1.828 2.195h-2.017l-.836-1.016A4.84 4.84 0 0 1 50.408 71c-2.418 0-3.855-1.245-3.855-3.058 0-1.66.98-2.49 2.685-3.342-.646-.775-.925-1.507-.925-2.26 0-1.311 1.003-2.37 2.618-2.37 1.572 0 2.585.96 2.585 2.337 0 1.048-.69 1.878-2.016 2.577l2.072 2.545Zm-3.543-1.857c-1.181.6-1.727 1.245-1.727 2.26 0 1.082.713 1.705 2.095 1.705.858 0 1.626-.284 2.24-.82l-2.608-3.145Zm1.96-3.265c0-.634-.434-1.027-1.046-1.027-.636 0-1.081.415-1.081 1.048 0 .557.256.95.613 1.377l.178.207c.891-.491 1.337-.972 1.337-1.605ZM61.795 60.1h6.83v1.475h-5.114V65.9h4.646v1.485h-4.646v3.484h-1.716V60.1ZM70.085 61.63c0-.601.501-1.049 1.08-1.049.58 0 1.082.448 1.082 1.048 0 .634-.502 1.06-1.081 1.06-.58 0-1.081-.426-1.081-1.06Zm.256 2.577h1.65v6.651h-1.65v-6.651ZM74.107 64.207h1.627l-.033 1.234c.423-.874 1.27-1.376 2.295-1.376 1.504 0 2.54 1.048 2.54 2.85v3.943H78.91v-3.812c0-.95-.457-1.507-1.404-1.507-1.07 0-1.76.634-1.76 1.715v3.604h-1.627v-6.651h-.012ZM85.272 65.397c-.891 0-1.404.383-1.772.787l-.936-.94c.602-.698 1.404-1.19 2.842-1.19 1.626 0 2.852.906 2.852 2.861v3.921h-1.627l.045-.95c-.49.71-1.125 1.092-2.128 1.092-1.337 0-2.44-.622-2.44-2.108 0-1.376 1.125-1.976 2.663-1.998h1.86c0-1.027-.479-1.475-1.359-1.475Zm-.379 2.61c-.713 0-1.18.252-1.18.841 0 .568.456.874 1.292.874.947 0 1.626-.459 1.626-1.19v-.524h-1.738ZM90.264 64.207h1.627l-.034 1.234c.424-.874 1.27-1.376 2.295-1.376 1.505 0 2.54 1.048 2.54 2.85v3.943h-1.626v-3.812c0-.95-.457-1.507-1.404-1.507-1.07 0-1.76.634-1.76 1.715v3.604h-1.627v-6.651h-.011ZM98.353 67.538c0-1.977 1.549-3.462 3.621-3.462 1.271 0 2.095.47 2.741 1.267l-1.158.917c-.324-.459-.892-.775-1.583-.775-1.214 0-1.938.873-1.938 2.053s.724 2.053 1.938 2.053c.803 0 1.293-.328 1.661-.742l1.114.95c-.658.742-1.471 1.201-2.775 1.201-2.072 0-3.62-1.474-3.62-3.462ZM109.685 69.657c.891 0 1.537-.35 1.916-.71l.947.983c-.635.622-1.504 1.081-2.852 1.081-2.329 0-3.822-1.474-3.822-3.462 0-1.977 1.582-3.462 3.621-3.462 2.307 0 3.622 1.682 3.499 4.008h-5.46c.201.94.903 1.562 2.151 1.562Zm1.66-2.698c-.145-.906-.713-1.562-1.838-1.562-1.048 0-1.772.568-1.973 1.562h3.811ZM114.509 61.63c0-.601.502-1.049 1.081-1.049.58 0 1.081.448 1.081 1.048 0 .634-.501 1.06-1.081 1.06-.579 0-1.081-.426-1.081-1.06Zm.257 2.577h1.649v6.651h-1.649v-6.651ZM118.532 64.207h1.627l-.012 1.245c.457-1.049 1.226-1.376 1.973-1.376.479 0 .824.11 1.114.284l-.546 1.441a1.815 1.815 0 0 0-.891-.218c-.97 0-1.627.557-1.627 2.042v3.233h-1.627v-6.651h-.011ZM127.056 65.397c-.892 0-1.404.383-1.772.787l-.936-.94c.602-.698 1.404-1.19 2.841-1.19 1.627 0 2.853.906 2.853 2.861v3.921h-1.627l.045-.95c-.491.71-1.126 1.092-2.129 1.092-1.337 0-2.44-.622-2.44-2.108 0-1.376 1.126-1.976 2.663-1.998h1.861c-.011-1.027-.49-1.475-1.359-1.475Zm-.39 2.61c-.713 0-1.181.252-1.181.841 0 .568.456.874 1.292.874.947 0 1.627-.459 1.627-1.19v-.524h-1.738Z" fill="#002D74"/></g><defs><clipPath id="a"><path fill="#fff" d="M0 0h131v71H0z"/></clipPath></defs></svg>