<svg width="193" height="58" viewBox="0 0 193 58" fill="none" xmlns="http://www.w3.org/2000/svg"><g clip-path="url(#a)" fill="#2C9757"><path d="M25.25 26.954 5.316 15.408 25.25 3.829l19.933 11.579L25.25 26.954ZM49.602 13.84 26.147.225c-.532-.3-1.23-.3-1.761 0L.897 13.873c-.565.334-.897.9-.897 1.535 0 .634.332 1.235.897 1.535l23.489 13.58c.266.168.565.235.897.235.299 0 .598-.067.897-.234L49.669 16.91c.531-.3.897-.901.897-1.535-.067-.634-.4-1.202-.964-1.535Z"/><path d="M48.738 21.844c-.963 0-1.76.8-1.76 1.765V41.62L25.25 54.205 3.522 41.653V23.675c0-.965-.798-1.764-1.761-1.764C.797 21.91 0 22.71 0 23.675v19.01c0 .633.332 1.232.897 1.532l23.489 13.55c.266.166.565.233.897.233.299 0 .598-.066.897-.233l23.489-13.583c.531-.3.897-.9.897-1.532v-19.01c-.067-.999-.864-1.798-1.828-1.798ZM61.504 22.412c0-1.065.863-1.93 1.924-1.93h5.507c1.061 0 1.924.865 1.924 1.93v15.812c0 1.066-.863 1.931-1.924 1.931h-5.507a1.929 1.929 0 0 1-1.924-1.93V22.411Zm7.398-6.092h-5.507c-3.35 0-6.07 2.73-6.07 6.092v15.812c0 3.362 2.72 6.092 6.07 6.092H68.9c3.351 0 6.071-2.73 6.071-6.092V22.412c0-3.362-2.72-6.092-6.07-6.092ZM122.899 28.904h-6.782A2.093 2.093 0 0 0 114.012 31c0 1.165.936 2.097 2.105 2.097h4.711v5.126c0 1.066-.869 1.931-1.938 1.931h-5.546a1.935 1.935 0 0 1-1.937-1.93V22.411c0-1.065.868-1.93 1.937-1.93h5.546c1.069 0 1.938.865 1.938 1.93 0 1.165.935 2.097 2.104 2.097 1.17 0 2.105-.932 2.105-2.097 0-3.362-2.739-6.092-6.114-6.092h-5.545c-3.375 0-6.114 2.73-6.114 6.092v15.812c0 3.362 2.739 6.092 6.114 6.092h5.545c3.375 0 6.114-2.73 6.114-6.092v-7.223c0-.566-.234-1.066-.601-1.465-.368-.4-.969-.633-1.537-.633ZM101.694 16.32c-1.147 0-2.065.931-2.065 2.095v23.806c0 1.164.918 2.095 2.065 2.095 1.148 0 2.065-.931 2.065-2.095v-23.84c0-1.13-.95-2.06-2.065-2.06ZM130.544 16.32c-1.181 0-2.128.931-2.128 2.095v23.806c0 1.164.947 2.095 2.128 2.095 1.182 0 2.128-.931 2.128-2.095V18.415c0-1.164-.946-2.095-2.128-2.095ZM151.641 16.32c-1.16 0-2.089.934-2.089 2.102v17.28l-9.62-18.314a2.086 2.086 0 0 0-1.791-1.034c-.166 0-2.09 0-2.09 2.101V42.34c0 1.167.929 2.102 2.09 2.102a2.086 2.086 0 0 0 2.089-2.102V25.86l9.62 17.48c.664 1.168 1.825 1.102 2.322.968.896-.233 1.526-1.067 1.526-2.001V18.422a2.038 2.038 0 0 0-2.057-2.102ZM190.937 40.127h-8.514V18.415a2.087 2.087 0 0 0-2.097-2.095 2.086 2.086 0 0 0-2.095 2.095v23.806c0 1.164.931 2.095 2.095 2.095h10.579A2.086 2.086 0 0 0 193 42.221c0-1.163-.931-2.094-2.063-2.094ZM91.97 26.28c0 1.067-.862 2.666-1.923 2.666H82.62v-6.53c0-1.066.862-1.932 1.922-1.932h5.504c1.06 0 1.922.866 1.922 1.932v3.865Zm-1.923-9.96h-5.504c-3.348 0-6.066 2.732-6.066 6.096v19.821c0 1.166.928 2.1 2.088 2.1 1.16 0 2.089-.934 2.089-2.1V33.11h4.243l5.338 10.227c.43.833 1.624 1.499 2.818.833a2.127 2.127 0 0 0 .828-2.832l-4.376-8.428c2.653-.666 4.608-3.798 4.608-6.662v-3.832c0-3.364-2.718-6.096-6.066-6.096ZM170.756 28.937h-9.273v-6.525c0-1.065.865-1.897 1.895-1.897h5.483c1.064 0 1.895.865 1.895 1.897v6.525Zm-1.895-12.617h-5.483c-3.357 0-6.049 2.73-6.049 6.059v19.807c0 1.165.93 2.097 2.094 2.097a2.087 2.087 0 0 0 2.094-2.097v-9.088h9.272v9.12c0 1.166.931 2.098 2.094 2.098 1.164 0 2.094-.899 2.094-2.13V22.945c-.067-3.995-2.793-6.625-6.116-6.625ZM82.613 11.678c0 .534.433 1.002.998 1.002a.982.982 0 0 0 .999-1.002V7.406c0-1.903-1.298-3.138-2.895-3.138h-2.596a2.902 2.902 0 0 0-2.895 2.904v4.506c0 .534.432 1.002.998 1.002.532 0 .998-.434.998-1.002V7.172c0-.5.4-.9.899-.9h2.596c.499 0 .898.4.898.9v4.506ZM73.592 8.943c.535 0 .334-.442.334-1.02 0-.543.234-1.018-.368-1.018H69.98c-1.906 0-3.143 1.325-3.143 2.955v-.136c0 1.63 1.304 2.956 2.909 2.956h1.705c.536 0 1.004-.442 1.004-1.02 0-.543-.435-1.018-1.004-1.018h-1.705a.906.906 0 0 1-.903-.918v.136c0-.51.401-.917.903-.917h3.846Z"/><path d="M69.467 10.677c-.537 0-1.006.434-1.006 1.001 0 .534.436 1.002 1.006 1.002h2.48c1.91 0 3.15-1.302 3.15-2.904V7.172a2.912 2.912 0 0 0-2.916-2.904h-4.089c-.536 0-1.005.434-1.005 1.002 0 .534.436 1.001 1.005 1.001h4.09a.9.9 0 0 1 .904.901v2.604a.9.9 0 0 1-.905.901h-2.714ZM92.752 6.271a1 1 0 0 0 0-2.003h-3.776c-1.889 0-3.115 1.302-3.115 2.904v2.604c0 1.602 1.292 2.904 2.883 2.904h4.008a1 1 0 0 0 0-2.003h-4.041a.894.894 0 0 1-.895-.901V7.172c0-.5.397-.9.894-.9h4.043ZM101.295 9.776c0 .5-.399.901-.898.901h-2.596c-.499 0-.898-.4-.898-.901V7.172c0-.5.4-.9.898-.9h2.596c.499 0 .898.4.898.9v2.604Zm-.931-5.508h-2.363c-1.897 0-3.128 1.302-3.128 2.904v2.604a2.902 2.902 0 0 0 2.895 2.904h2.363c1.897 0 3.128-1.302 3.128-2.904V7.172a2.902 2.902 0 0 0-2.895-2.904ZM63.578 5.61s.993-.1.993-1.77V2.738C64.57 1.235 63.346 0 61.857 0h-2.25c-2.084 0-2.283.601-2.283 2.738v7.078c0 2.104.497 2.738 2.714 2.738h3.21c1.488 0 2.712-1.235 2.712-2.738V8.08c-.033-2.204-2.382-2.47-2.382-2.47Zm-3.97-3.74h2.25c.463 0 .86.4.86.868V3.84c0 .467-.397 1.202-.86 1.202h-2.681V2.738c0-.701-.264-.868.43-.868Zm4.466 7.946a.88.88 0 0 1-.86.868h-3.21c-.694 0-.86-.167-.86-.868V6.878h4.07c.463 0 .86.735.86 1.202v1.736Z"/></g><defs><clipPath id="a"><path fill="#fff" d="M0 0h193v58H0z"/></clipPath></defs></svg>