<svg width="130" height="60" viewBox="0 0 130 60" fill="none" xmlns="http://www.w3.org/2000/svg"><g clip-path="url(#a)"><path d="M63.603 47.08h-5.201v-7.188h5.201c2.459.037 4.136 1.421 4.136 3.586 0 2.166-1.677 3.602-4.136 3.602Zm.708-12.497H52.255V60h6.147v-7.275h5.872c6.483 0 9.648-4.593 9.648-9.247 0-4.653-3.129-8.895-9.61-8.895ZM122.459 50.095l-11.682-15.512h-6.267V60h6.267V44.451L122.459 60h6.267V34.583h-6.267v15.512ZM55.128 26.865v-2.467h2.488c1.139 0 1.734.299 1.734 1.233 0 .823-.578 1.234-1.734 1.234h-2.488Zm0-7.457h2.295c1.104 0 1.63.411 1.63 1.27 0 .991-.386 1.384-1.63 1.384h-2.295v-2.654ZM62.45 25.8c0-1.364-.63-2.467-1.787-3.084.263-.206 1.121-1.121 1.121-2.43 0-2.037-1.086-3.494-4.537-3.494h-4.993V29.5h5.694c3.259 0 4.502-1.626 4.502-3.7ZM87.238 21.725l6.505 7.775h3.12V16.792h-3.12v7.755l-6.505-7.755h-3.12V29.5h3.12v-7.775ZM113.431 26.98l-2.534-1.734a3.305 3.305 0 0 1-2.554 1.2 3.309 3.309 0 0 1-3.315-3.301c0-1.822 1.485-3.3 3.315-3.3 1.025 0 1.944.465 2.549 1.195l2.534-1.737a6.377 6.377 0 0 0-5.083-2.511c-3.526 0-6.382 2.845-6.382 6.353 0 3.51 2.856 6.355 6.382 6.355a6.376 6.376 0 0 0 5.088-2.52ZM123.627 19.844c1.828 0 3.31 1.48 3.31 3.302s-1.482 3.3-3.31 3.3a3.305 3.305 0 0 1-3.309-3.3 3.306 3.306 0 0 1 3.309-3.302Zm0 9.656c3.52 0 6.373-2.845 6.373-6.354 0-3.51-2.853-6.354-6.373-6.354-3.519 0-6.372 2.844-6.372 6.354 0 3.51 2.853 6.354 6.372 6.354ZM73.333 20.268l1.724 4.218c-.574.087-1.158.135-1.742.135-.583 0-1.16-.046-1.73-.133l1.748-4.22Zm-2.845 6.864a14.02 14.02 0 0 0 5.361.059c.096-.018.192-.04.288-.06l.968 2.369h3.19l-5.322-12.708H71.64L66.275 29.5h3.231l.982-2.368ZM86.667 50.348a23.53 23.53 0 0 1-3.52-.268l3.557-8.544 3.504 8.54a23.612 23.612 0 0 1-3.541.272Zm-3.368-15.765L72.647 60h6.37l1.97-4.735a28.281 28.281 0 0 0 10.77.117c.193-.036.386-.08.579-.12L94.281 60h6.405L89.998 34.583h-6.699ZM18.48 39.725c-4.18 0-7.579-3.322-7.579-7.408 0-4.088 3.399-7.41 7.58-7.41 4.18 0 7.578 3.322 7.578 7.41 0 4.086-3.398 7.408-7.579 7.408Zm0-25.475C8.29 14.25 0 22.354 0 32.317V60h10.902V48.82l.857.33a18.775 18.775 0 0 0 6.721 1.233c10.191 0 18.48-8.104 18.48-18.066 0-9.963-8.289-18.067-18.48-18.067Z" fill="#414141"/><path d="M0 9.167h10.196V-1H0V9.167Z" fill="#00C5FF"/></g><defs><clipPath id="a"><path fill="#fff" d="M0 0h130v60H0z"/></clipPath></defs></svg>