<svg width="177" height="57" viewBox="0 0 177 57" fill="none" xmlns="http://www.w3.org/2000/svg"><g clip-path="url(#a)" fill-rule="evenodd" clip-rule="evenodd"><path d="M174.236 0h-50.868a2.757 2.757 0 0 0-1.954.819 2.815 2.815 0 0 0-.812 1.972v51.42c.002.74.294 1.45.812 1.973a2.76 2.76 0 0 0 1.954.82h50.868a2.756 2.756 0 0 0 1.953-.82 2.814 2.814 0 0 0 .813-1.973V2.79a2.812 2.812 0 0 0-.813-1.972A2.755 2.755 0 0 0 174.236 0Z" fill="#00ADEE"/><path d="M173.228 33.974c-2.046-2.611-7.034-3.165-9.735-3.165a87.778 87.778 0 0 0-31.95 5.983c.1-2.96-.01-5.925-.329-8.87 7.547-2.227 20.867-4.013 29.626-3.238 8.183.726 11.268 5.337 12.388 9.29Z" fill="#fff"/><path d="M169.561 26.427c-2.281-2.167-4.024-3.722-10.943-4.74-6.919-1.016-21.568.516-28.043 2.166a63.143 63.143 0 0 0-1.874-7.65 78.434 78.434 0 0 1 26.983-.065c9.149 1.582 12.071 6.764 13.877 10.29Z" fill="#fff"/><path d="M123.738 4.861c23.568-.62 36.811 9.813 39.45 12.685-2.295-1.933-6.722-3.58-10.538-4.323a76.625 76.625 0 0 0-25.197-.62c-.894-2.351-2.545-5.505-3.715-7.734M169.561 49.072c3.793-7.92 2.903-9.304-4.546-8.386-11.569 1.43-26.16 6.437-37.177 12.454a32.798 32.798 0 0 0 3.376-11.462 89.733 89.733 0 0 1 34.656-7.687c12.889-.257 8.049 9.706 3.683 15.081" fill="#fff"/><path d="M95.99 43.045c0 3.877 2.015 6.617 5.336 6.617 3.355 0 5.276-2.878 5.276-6.726 0-3.557-1.889-6.617-5.309-6.617-3.353 0-5.303 2.882-5.303 6.732v-.006Zm15.853-.256c0 6.488-4.364 10.425-10.777 10.425-6.512 0-10.324-4.435-10.324-10.076 0-5.936 4.203-10.371 10.682-10.371 6.741 0 10.419 4.549 10.419 10.022Zm-53.749-9.702v11.406c0 3.407 1.432 5.14 3.973 5.14 2.607 0 4.039-1.644 4.039-5.14V33.087h4.951V44.19c0 6.11-3.419 9.019-9.151 9.019-5.536 0-8.797-2.76-8.797-9.08v-11.04h4.985Zm-7.193 18.889a27.013 27.013 0 0 1-7.328 1.114c-4.006 0-6.903-.912-8.924-2.671-2.02-1.708-3.128-4.29-3.094-7.196.035-6.583 5.338-10.338 12.538-10.338 2.833 0 5.012.498 6.09.974l-1.041 3.58c-1.205-.467-2.705-.851-5.115-.851-4.13 0-7.257 2.117-7.257 6.41 0 4.081 2.832 6.492 6.903 6.492 1.138 0 2.046-.116 2.443-.291v-4.136l.012-3.494h4.775l-.002 10.407Zm-21.038-7.463h-8.077v4.7h9.02v3.674H16.804v-19.8H30.35v3.67h-8.564v4.113h8.077v3.643ZM1.017 48.274a13.763 13.763 0 0 0 5.503 1.241c2.28 0 3.478-.852 3.478-2.142 0-1.24-1.043-1.942-3.682-2.791C2.672 43.427.295 41.608.295 38.724c0-3.379 3.124-5.963 8.302-5.963 2.477 0 4.296.469 5.603.998l-1.108 3.617a11.33 11.33 0 0 0-4.593-.947c-2.147 0-3.192.883-3.192 1.91 0 1.266 1.24 1.822 4.071 2.792 3.887 1.292 5.698 3.111 5.698 5.905 0 3.308-2.832 6.168-8.855 6.168-2.508 0-4.983-.62-6.221-1.24l1.017-3.69Zm77.622-6.41h1.946c2.473 0 3.936-1.118 3.936-2.85 0-1.82-1.367-2.732-3.642-2.759-.753-.01-1.505.037-2.25.145l.01 5.465Zm-4.91-8.514c2.19-.29 4.397-.428 6.606-.414 3.253 0 5.524.44 7.093 1.553 1.297.941 2.015 2.924 2.015 4.745a5.148 5.148 0 0 1-.944 3.054 5.061 5.061 0 0 1-2.556 1.888v.091c.937 1.32 6.546 8.594 6.546 8.594h-5.493l-5.884-7.777h-2.48v7.783h-4.91l.007-19.517ZM100.388 24.053c-4.075 0-6.708-3.242-6.708-8.26s2.678-8.401 6.672-8.401c3.93 0 6.671 3.395 6.671 8.26 0 5.103-2.602 8.401-6.635 8.401Zm.119-20.559c-7.529 0-12.788 5.103-12.788 12.406 0 7.206 4.963 12.051 12.356 12.051 7.836 0 12.902-4.898 12.902-12.48 0-5.964-3.851-11.977-12.48-11.977h.01Zm-12.08.395v4.146H81.15v19.521h-5.638V8.035h-7.175V3.9l20.088-.01Zm-31.44 10.688h-2.59V7.533l.174-.034c.92-.131 1.85-.192 2.779-.181 2.993.04 4.646 1.31 4.646 3.577 0 2.266-1.915 3.682-5.009 3.682Zm6.343 2.845-.041-.056v-.33l.143-.052a5.937 5.937 0 0 0 3.01-2.22 6.04 6.04 0 0 0 1.106-3.594c0-2.33-.949-4.58-2.363-5.604-1.798-1.286-4.425-1.86-8.52-1.86a59.601 59.601 0 0 0-7.834.475v23.365h5.566v-9.462h3.343s7.042 9.305 7.16 9.472h6.128c-1.266-1.654-6.698-8.72-7.7-10.132l.002-.002Zm-29.49 6.631c-4.077 0-6.712-3.242-6.712-8.26s2.678-8.401 6.676-8.401c3.926 0 6.67 3.395 6.67 8.26 0 5.103-2.603 8.401-6.633 8.401Zm.117-20.559c-7.529 0-12.788 5.103-12.788 12.406 0 7.206 4.969 12.051 12.357 12.051 7.84 0 12.903-4.898 12.903-12.48 0-5.964-3.855-11.977-12.48-11.977h.008ZM9.15 15.294a10.14 10.14 0 0 1-2.066-.148l-.168-.037V7.652l.16-.04c.84-.17 1.695-.244 2.55-.22 3.086 0 4.93 1.402 4.93 3.755 0 2.558-2.073 4.148-5.406 4.148Zm8.198-9.693c-1.762-1.273-4.389-1.892-8.04-1.892-3.155 0-5.825.158-7.955.476V27.55h5.563v-8.641l.241.035c.674.074 1.35.109 2.028.104 3.682 0 6.635-.86 8.55-2.482 1.532-1.32 2.377-3.296 2.377-5.57a6.568 6.568 0 0 0-.721-3.043A6.49 6.49 0 0 0 17.347 5.6Z" fill="#000"/></g><defs><clipPath id="a"><path fill="#fff" d="M0 0h177v57H0z"/></clipPath></defs></svg>