<svg width="193" height="47" viewBox="0 0 193 47" fill="none" xmlns="http://www.w3.org/2000/svg"><path d="M13.403 12.685c2.873-.892 4.804-3.274 4.804-5.926 0-3.45-3.144-6.256-7.01-6.256H0v22.18h3.733V13.92h2.712c2.32 0 3.043.075 4.245 1.754l4.572 7.012h4.311l-6.483-9.9.313-.1Zm-9.67-2.144V3.88h7.541c1.801 0 3.198 1.791 3.198 3.331 0 1.906-1.728 3.331-3.274 3.331H3.733ZM43.883.51l-10.25 22.173h3.995l2.224-4.852 10.019-.017 2.2 4.869h3.998L45.812.498 43.883.51ZM41.35 14.457l3.416-7.474h.172l3.406 7.469-6.994.005ZM62.08 11.575c0-4.426 3.587-8.027 7.995-8.027 2.095 0 4.251.98 6.069 2.759l.124.12 2.754-2.505-.147-.137c-1.47-1.36-2.828-2.293-4.149-2.848C73.19.325 71.581 0 70.075 0c-1.639 0-3.175.296-4.701.903-1.444.608-2.749 1.488-3.769 2.546a11.28 11.28 0 0 0-3.408 8.124c0 3.088 1.206 5.968 3.394 8.11 1.023 1.058 2.296 1.92 3.792 2.565a12.16 12.16 0 0 0 4.69.936c1.592 0 3.206-.325 4.667-.942 1.374-.613 2.767-1.584 4.135-2.88l.147-.14-2.843-2.463-.121.121c-1.747 1.752-3.928 2.756-5.985 2.756-4.406.003-7.994-3.615-7.994-8.06ZM87.947.502h-3.799v22.18h3.8l.007-9.23h10.642l-.006 9.23h3.809V.502h-3.809l.006 9.57H87.955l-.008-9.57ZM112.128 15.549V.503h-3.803v15.046c0 1.05.643 7.636 9.145 7.636 8.501 0 9.107-6.586 9.107-7.636V.503h-3.808l.004 15.046c0 2.33-2.29 4.218-5.303 4.218-3.034.001-5.342-1.888-5.342-4.218ZM136.236 13.452h10.124v-3.38h-10.124V3.879h11.072V.503h-14.805v22.18h14.805v-3.375h-11.072v-5.856ZM189.483 3.474c-2.28-2.24-5.25-3.474-8.362-3.474-3.267 0-6.302 1.275-8.549 3.587-2.113 2.177-3.325 5.088-3.325 7.986 0 6.295 5.439 11.612 11.876 11.612 3.222 0 6.247-1.296 8.52-3.647 2.133-2.208 3.357-5.11 3.357-7.963-.002-2.955-1.282-5.908-3.517-8.101Zm-8.362 16.175c-4.414 0-8.006-3.623-8.006-8.076 0-4.432 3.592-8.038 8.006-8.038 4.393 0 7.966 3.606 7.966 8.038.002 4.454-3.573 8.076-7.966 8.076ZM28.541.503h-3.806v22.18h3.806V.504ZM156.988 16.428V.503h-3.808v15.925c0 3.449 3.108 6.256 6.93 6.256h7.901v-3.376h-7.901c-1.76 0-3.122-1.291-3.122-2.88ZM49.596 46.497h-.78l-3.866-9.424h.97l3.096 7.607.189.58.175-.58 3.11-7.607h.97l-3.864 9.424ZM55.992 46.5h-.889v-9.425h.889v9.424ZM62.28 46.5h-.78l-3.866-9.425h.97l3.096 7.607.189.58.175-.58 3.11-7.608h.97L62.28 46.5ZM74.156 46.5h-.997l-1.119-2.734H67.68l-1.09 2.733h-.998l3.851-9.425h.849l3.865 9.425Zm-4.471-7.703-1.697 4.12h3.744l-1.696-4.12-.175-.512-.176.512ZM81.278 36.898c.8 0 1.436.224 1.913.674.475.45.718 1.086.727 1.912h-.902c-.01-.566-.17-1.003-.485-1.313-.314-.31-.736-.464-1.265-.464-.52 0-.927.148-1.218.444-.291.296-.437.704-.437 1.226 0 .484.141.85.425 1.096.282.247.8.523 1.555.829.97.377 1.653.756 2.054 1.138.398.382.6.905.6 1.569 0 .825-.258 1.477-.775 1.952-.517.476-1.197.713-2.04.713-.934 0-1.667-.262-2.2-.788-.535-.525-.806-1.227-.815-2.107h.901c.01.664.2 1.178.573 1.541.372.364.89.546 1.555.546.61 0 1.08-.169 1.406-.505.328-.337.491-.774.491-1.312 0-.44-.161-.801-.485-1.085-.323-.282-.88-.567-1.67-.854-.43-.17-.78-.327-1.05-.47-.27-.145-.52-.321-.755-.533a1.95 1.95 0 0 1-.512-.727 2.596 2.596 0 0 1-.161-.963c0-.718.224-1.318.673-1.798.448-.48 1.08-.72 1.897-.72ZM93.289 42.81c0 1.265-.316 2.225-.95 2.881-.633.655-1.524.983-2.673.983s-2.04-.328-2.673-.983c-.634-.655-.95-1.615-.95-2.882v-5.736h.888v5.736c0 2.02.911 3.03 2.733 3.03 1.823 0 2.733-1.01 2.733-3.03v-5.736h.888v5.736h.004ZM102.861 46.5h-.997l-1.118-2.734h-4.362l-1.09 2.733h-.998l3.851-9.425h.849l3.865 9.425Zm-4.47-7.703-1.696 4.12h3.744l-1.696-4.12-.175-.512-.177.512ZM117.106 46.5h-.888v-7.58l-.242.631-3.272 6.948h-.673l-3.272-6.948-.242-.631v7.58h-.888v-9.425h.916l3.527 7.378.282.634.296-.634 3.542-7.379h.915V46.5h-.001ZM120.399 38.292c.902-.929 2.044-1.394 3.426-1.394 1.382 0 2.522.465 3.42 1.394.898.93 1.347 2.09 1.347 3.48 0 1.4-.449 2.568-1.347 3.5-.897.935-2.038 1.4-3.42 1.4-1.382 0-2.524-.465-3.426-1.4-.902-.933-1.353-2.1-1.353-3.5-.002-1.39.449-2.55 1.353-3.48Zm6.185.586c-.718-.762-1.638-1.144-2.76-1.144-1.123 0-2.045.382-2.767 1.144-.723.763-1.085 1.729-1.085 2.896 0 1.167.362 2.137 1.085 2.908.722.773 1.644 1.158 2.767 1.158 1.113 0 2.03-.387 2.753-1.158.722-.771 1.084-1.74 1.084-2.908 0-1.167-.357-2.133-1.077-2.896ZM133.856 37.075c1.445 0 2.596.428 3.454 1.285.857.858 1.285 2 1.285 3.426 0 1.427-.429 2.57-1.285 3.427-.858.857-2.009 1.285-3.454 1.285h-3.313v-9.425h3.313v.002Zm-2.423.834v7.755h2.423c1.176 0 2.109-.345 2.8-1.037.692-.692 1.037-1.638 1.037-2.84 0-1.194-.345-2.139-1.037-2.835-.691-.696-1.624-1.043-2.8-1.043h-2.423ZM147.738 46.5h-.997l-1.118-2.734h-4.362l-1.09 2.733h-.997l3.851-9.425h.848l3.865 9.425Zm-4.471-7.703-1.696 4.12h3.744l-1.697-4.12-.175-.512-.176.512Z" fill="#000"/></svg>