<svg width="158" height="56" viewBox="0 0 158 56" fill="none" xmlns="http://www.w3.org/2000/svg"><path fill-rule="evenodd" clip-rule="evenodd" d="M0 47.7v-.025l9.242-10.8c3.998 3.87 10.164 5.92 16.67 5.92 4.57 0 7.31-1.708 7.424-3.985.113-3.87-6.62-4.438-12.79-6.143-6.965-1.935-14.389-6.604-12.444-16.395C9.559 8.873 16.114.262 32.67 0h1.656c9.149.127 15.976 2.28 21.618 6.254l.91-4.665h16.904l-4.915 22.88L88.719 1.59h16.788l9.137 16.849 13.13-16.849h19.528l-27.633 32.44-4.112 20.266h-16.67l4.68-22.653-8.568-14.687-11.19 12.18L98.882 54.29h-20.1L67.016 33.347 63.018 54.29H46.122l2.395-12.063C43.946 52.587 35.386 56 23.736 56 13.93 56 4.916 53.044 0 47.7Zm48.41-29.95c-7.196-3.985-11.99-4.891-17.132-4.891-2.854 0-6.052.68-6.51 3.413-.346 2.388 1.944 2.956 6.737 3.985 8.792 1.82 17.701 4.212 18.838 13.205l4.801-23.564-6.733 7.852ZM151.564 6.934h1.523c.629 0 1.026-.31 1.185-.93.154-.604-.057-.906-.642-.906h-1.595l-.471 1.836Zm-1.952 2.952 1.498-5.833h2.894c1.278 0 1.757.604 1.449 1.812-.223.878-.65 1.407-1.279 1.582.504.135.674.516.516 1.144l-.333 1.295h-1.193l.276-1.077c.142-.552-.065-.826-.621-.826h-1.522l-.487 1.903h-1.198Zm4.303-7.363c-1.186 0-2.31.437-3.373 1.315-1.068.879-1.758 1.936-2.079 3.18-.316 1.243-.17 2.304.443 3.182.617.878 1.514 1.32 2.699 1.32 1.185 0 2.306-.442 3.369-1.32 1.063-.878 1.753-1.939 2.07-3.183.317-1.235.17-2.296-.438-3.175-.609-.878-1.506-1.319-2.691-1.319Zm.19-.715c1.393 0 2.448.509 3.174 1.526.723 1.017.906 2.249.536 3.683-.369 1.439-1.177 2.667-2.427 3.688-1.25 1.021-2.569 1.534-3.957 1.534-1.405 0-2.472-.509-3.199-1.53-.73-1.017-.909-2.25-.54-3.692.37-1.438 1.181-2.666 2.432-3.683 1.25-1.017 2.577-1.526 3.981-1.526Z" fill="#F35C58"/></svg>