<svg data-name="Camada 1" xmlns="http://www.w3.org/2000/svg" viewBox="0 0 113.5 116.5"><defs><clipPath id="a"><path style="fill:none" d="M1.75 1.32h110.77v113.41H1.75z"/></clipPath></defs><g style="clip-path:url(#a)"><path d="M112.52 114.72H57.14C26.55 114.72 1.75 89.34 1.75 58S26.55 1.3 57.14 1.3s55.38 25.4 55.38 56.7Z" style="fill:#722c69"/><path d="M67.16 71.34c0 4.76 2 7.91 5.84 7.91s5.8-2.89 5.8-7.91-2.21-7.77-5.9-7.77c-3.4 0-5.74 2.84-5.74 7.77m16.91 0c0 7-3.84 12.47-11.24 12.47-7 0-11-5-11-12.4 0-6.75 3.78-12.4 11.12-12.4 6.85 0 11.14 4.58 11.14 12.33M40.53 83l27.88-43.39h5.32L45.86 83Zm-5-31.76c0 4.79 2 7.9 5.84 7.9s5.79-2.88 5.79-7.9-2.21-7.78-5.9-7.78c-3.47 0-5.73 2.7-5.73 7.78m16.9 0c0 7.07-3.87 12.46-11.24 12.46-6.93 0-11-4.79-11-12.39 0-6.76 3.82-12.41 11.12-12.41 6.78 0 11.14 4.58 11.14 12.34" style="fill:#fff"/></g></svg>