<svg id="Camada_1" data-name="Camada 1" xmlns="http://www.w3.org/2000/svg" viewBox="0 0 113.5 116.5"><defs><clipPath id="clip-path"><path style="fill:none" d="M1 1.32h110.77v113.41H1z"/></clipPath><style>.cls-4{fill:#fff}</style></defs><g style="clip-path:url(#clip-path)"><path d="M111.77 114.72H56.39C25.8 114.72 1 89.34 1 58S25.8 1.32 56.39 1.32 111.77 26.7 111.77 58Z" style="fill:#722c69"/><path class="cls-4" d="M86.28 80a1.06 1.06 0 0 1-1.06 1.07H57.45V46.92a1.07 1.07 0 1 0-2.13 0v34.17H27.55A1.07 1.07 0 0 1 26.48 80V43.71a1.06 1.06 0 0 1 1.07-1.06h57.67a1.05 1.05 0 0 1 1.06 1.06Zm-1.06-39.49H27.55a3.2 3.2 0 0 0-3.2 3.2V80a3.2 3.2 0 0 0 3.2 3.2h57.67a3.2 3.2 0 0 0 3.2-3.2V43.71a3.2 3.2 0 0 0-3.2-3.2"/><path class="cls-4" d="M81 49.05H61.72a1.07 1.07 0 0 0 0 2.14H81a1.07 1.07 0 0 0 0-2.14M81 55.46H61.72a1.07 1.07 0 0 0 0 2.14H81a1.07 1.07 0 0 0 0-2.14M81 61.87H61.72a1.07 1.07 0 0 0 0 2.13H81a1.07 1.07 0 0 0 0-2.13M81 68.27h-9.66a1.07 1.07 0 0 0 0 2.14H81a1.07 1.07 0 0 0 0-2.14M41.5 53.41a3.31 3.31 0 1 0 3.31 3.31 3.31 3.31 0 0 0-3.31-3.31m0 7.41a4.1 4.1 0 1 1 4.1-4.1 4.11 4.11 0 0 1-4.1 4.1"/><path class="cls-4" d="M41.5 53.61a3.12 3.12 0 1 0 3.12 3.11 3.12 3.12 0 0 0-3.12-3.11m0 6.61a3.5 3.5 0 1 1 3.5-3.5 3.5 3.5 0 0 1-3.5 3.5m0-7.41a3.91 3.91 0 1 0 3.91 3.91 3.91 3.91 0 0 0-3.91-3.91m0 8.2a4.29 4.29 0 1 1 4.29-4.29A4.3 4.3 0 0 1 41.5 61"/><path class="cls-4" d="M41.5 53.51a3.21 3.21 0 1 0 3.21 3.21 3.21 3.21 0 0 0-3.21-3.21m0 6.62a3.41 3.41 0 1 1 3.41-3.41 3.41 3.41 0 0 1-3.41 3.41m0-7.41a4 4 0 1 0 4 4 4 4 0 0 0-4-4m0 8.2a4.2 4.2 0 1 1 4.2-4.2 4.2 4.2 0 0 1-4.2 4.2"/><path class="cls-4" d="M41.5 53.7a3 3 0 1 0 3 3 3 3 0 0 0-3-3m0 6.62a3.6 3.6 0 1 1 3.6-3.6 3.61 3.61 0 0 1-3.6 3.6m0-7.41a3.81 3.81 0 1 0 3.81 3.81 3.82 3.82 0 0 0-3.81-3.81m0 8.2a4.39 4.39 0 1 1 4.39-4.39 4.4 4.4 0 0 1-4.39 4.39M34.09 69.56h14.82a7.09 7.09 0 0 0-.34-1.43 7.53 7.53 0 0 0-3.77-4.28 7.36 7.36 0 0 0-3.3-.76 7.47 7.47 0 0 0-3.3.76 7.58 7.58 0 0 0-3.78 4.28 7.06 7.06 0 0 0-.33 1.43m15.27.79H33.64a.4.4 0 0 1-.29-.12.44.44 0 0 1-.1-.3 8.11 8.11 0 0 1 .42-2.06 8.35 8.35 0 0 1 4.18-4.73 8.26 8.26 0 0 1 7.3 0 8.3 8.3 0 0 1 4.17 4.73 7.87 7.87 0 0 1 .42 2 .52.52 0 0 1 0 .11.4.4 0 0 1-.4.4"/><path class="cls-4" d="M34.31 69.37h14.38a8.16 8.16 0 0 0-.3-1.18A7.37 7.37 0 0 0 44.71 64a7.33 7.33 0 0 0-6.42 0 7.37 7.37 0 0 0-3.68 4.17 6.19 6.19 0 0 0-.3 1.18m14.82.38H33.87v-.22a6.75 6.75 0 0 1 .35-1.46 7.68 7.68 0 0 1 7.25-5.18 7.59 7.59 0 0 1 3.38.79 7.71 7.71 0 0 1 3.87 4.39 7.56 7.56 0 0 1 .35 1.46Zm-7.63-7.25a8.05 8.05 0 0 0-8.06 7.46.19.19 0 0 0 .05.16.22.22 0 0 0 .15.06h15.72a.21.21 0 0 0 .21-.21 7.86 7.86 0 0 0-.42-2 8.09 8.09 0 0 0-4.08-4.63 8 8 0 0 0-3.56-.83m7.86 8.06H33.64a.57.57 0 0 1-.58-.63 8.48 8.48 0 0 1 8.44-7.82 8.28 8.28 0 0 1 3.73.87 8.5 8.5 0 0 1 4.28 4.84 8.64 8.64 0 0 1 .42 2A.33.33 0 0 1 50 70a.59.59 0 0 1-.59.59"/><path class="cls-4" d="M34.2 69.46h14.6a8.5 8.5 0 0 0-.32-1.3 7.45 7.45 0 0 0-3.73-4.22 7.29 7.29 0 0 0-3.25-.76 7.39 7.39 0 0 0-3.25.76 7.48 7.48 0 0 0-3.73 4.22 7.26 7.26 0 0 0-.32 1.3m14.82.2H34v-.12a7.18 7.18 0 0 1 .34-1.44 7.65 7.65 0 0 1 3.83-4.34A7.51 7.51 0 0 1 41.5 63a7.42 7.42 0 0 1 3.34.78 7.6 7.6 0 0 1 3.83 4.33 7.93 7.93 0 0 1 .33 1.43Zm-7.52-7.27a8.18 8.18 0 0 0-7.73 5.51 7.89 7.89 0 0 0-.42 2 .29.29 0 0 0 .29.32h15.72a.3.3 0 0 0 .3-.3.25.25 0 0 0 0-.08 8.05 8.05 0 0 0-.42-2 8.18 8.18 0 0 0-4.13-4.68 8 8 0 0 0-3.6-.84m7.86 8.06H33.64a.5.5 0 0 1-.49-.53 8.19 8.19 0 0 1 .43-2.08 8.39 8.39 0 0 1 7.92-5.65 8.23 8.23 0 0 1 3.69.86 8.39 8.39 0 0 1 4.23 4.79 8.61 8.61 0 0 1 .42 2 .43.43 0 0 1 0 .12.5.5 0 0 1-.5.5"/><path class="cls-4" d="M34.43 69.27h14.14a5.88 5.88 0 0 0-.27-1 7.22 7.22 0 0 0-3.63-4.12 7.09 7.09 0 0 0-3.17-.73 7.19 7.19 0 0 0-3.17.73 7.26 7.26 0 0 0-3.63 4.11 6.22 6.22 0 0 0-.27 1m14.81.58H33.75v-.33a8.18 8.18 0 0 1 .4-1.51 7.78 7.78 0 0 1 7.35-5.25 7.68 7.68 0 0 1 3.43.8A7.81 7.81 0 0 1 48.85 68a8.38 8.38 0 0 1 .35 1.48Zm-7.74-7.26a7.91 7.91 0 0 0-3.5.82 8.06 8.06 0 0 0-4 4.6 7.93 7.93 0 0 0-.41 2 .11.11 0 0 0 0 .08.09.09 0 0 0 .07 0h15.7a.11.11 0 0 0 .11-.11v-.06a8.21 8.21 0 0 0-.42-1.91 8 8 0 0 0-4-4.57 7.91 7.91 0 0 0-3.52-.82m7.86 8.06H33.64a.68.68 0 0 1-.5-.22.67.67 0 0 1-.14-.55 8.17 8.17 0 0 1 .44-2.12 8.62 8.62 0 0 1 4.32-4.9 8.56 8.56 0 0 1 7.56 0A8.55 8.55 0 0 1 50 69.8a.5.5 0 0 1 0 .15.69.69 0 0 1-.69.69"/></g></svg>