<svg id="Camada_1" data-name="Camada 1" xmlns="http://www.w3.org/2000/svg" viewBox="0 0 75 75"><defs><style>.cls-1{fill:#74c095}</style></defs><path class="cls-1" d="m5.22 54 6.62-6.48a2.64 2.64 0 0 1 3.71 0l10.75 11a2.63 2.63 0 0 1 0 3.72l-6.62 6.47a2.7 2.7 0 0 1-3.71 0l-10.75-11a2.64 2.64 0 0 1 0-3.72m17.5-12.19a4.48 4.48 0 0 1 3.08-1.23h6a4.43 4.43 0 0 1 2.56.82l2.11 1.49.13.08h9.73a2 2 0 0 1 0 4H35.81a1.15 1.15 0 0 0 0 2.29h10.53a4.32 4.32 0 0 0 4.21-5.09l2.74-1.78.94-.57a1.24 1.24 0 0 0 .22-.18l3.93-4.19a3.64 3.64 0 0 1 5.13-.17 1 1 0 0 1 .32.73 1 1 0 0 1-.27.67l-8 8.48-.62.5-.09.08-5.55 4.49a9 9 0 0 1-5.64 2H33.55a9.7 9.7 0 0 0-5.82 1.92l-.31.23-9.68-9.89ZM28 33.66a21.66 21.66 0 0 1 11-18.6h7.27a21.61 21.61 0 0 1 11 18.6c0 .65 0 1.3-.1 1.93a4.89 4.89 0 0 0-.4.39l-3.82 4.07-.83.51-2.53 1.64a4.27 4.27 0 0 0-3.18-1.42h-8.88l-1.81-1.28a6.74 6.74 0 0 0-3.89-1.24h-3.26a20.84 20.84 0 0 1-.57-4.6M47.7 5.48l-2 7.29h-6.14l-2-7.29ZM14.29 70.34a4.93 4.93 0 0 0 7 .07l6.62-6.48a4.83 4.83 0 0 0 1.47-3.46 4.78 4.78 0 0 0-.5-2.21l.26-.19a7.48 7.48 0 0 1 4.46-1.47h10.14a11.28 11.28 0 0 0 7.08-2.5l5.67-4.59a4.45 4.45 0 0 0 .65-.53.81.81 0 0 0 .1-.09l8-8.53a3.28 3.28 0 0 0 .89-2.24 3.36 3.36 0 0 0-1-2.39 6.3 6.3 0 0 0-5.57-1.43c.43-.07-.58-5.48-.71-6a24.9 24.9 0 0 0-2.41-6.05 24.45 24.45 0 0 0-8.49-8.86l2.35-8.76a1.15 1.15 0 0 0-1.11-1.44H36.1a1.16 1.16 0 0 0-.91.45 1.13 1.13 0 0 0-.19 1l2.35 8.74a23.93 23.93 0 0 0-11.59 20.28 22.84 22.84 0 0 0 .46 4.62h-.42a6.7 6.7 0 0 0-4.66 1.87L16 45.1a4.91 4.91 0 0 0-5.73.83l-6.65 6.48a4.91 4.91 0 0 0-.07 7Z"/><path class="cls-1" d="M23.19 58.7A2.18 2.18 0 1 1 21 60.88a2.18 2.18 0 0 1 2.18-2.18M42.41 30.91h.12a1.56 1.56 0 0 1 1.26.64A1.54 1.54 0 0 1 42.9 34a1.45 1.45 0 0 1-.35 0 1.55 1.55 0 0 1-1.49-1.06 1.14 1.14 0 0 0-1.06-.78 1.19 1.19 0 0 0-1 .49c-.21.3-.45.67-.34 1A4.83 4.83 0 0 0 41 36.14v1.17c0 .64.88 1.17 1.52 1.17s1.53-.53 1.53-1.17v-1.17A4.62 4.62 0 0 0 46.29 34a4.4 4.4 0 0 0-.4-3.84 3.76 3.76 0 0 0-3.24-1.76h-.12a1.41 1.41 0 0 1-1.42-2 1.52 1.52 0 0 1 1.09-.86 1.72 1.72 0 0 1 .32 0 1.57 1.57 0 0 1 1.48 1 1.14 1.14 0 0 0 1.09.78 1.16 1.16 0 0 0 .95-.49c.22-.3.46-.67.35-1a4.82 4.82 0 0 0-2.34-2.46v-1.2c0-.64-.88-1.16-1.53-1.16S41 21.53 41 22.17v1.19a4.54 4.54 0 0 0-2.25 2.23 4.18 4.18 0 0 0 .53 3.82 3.62 3.62 0 0 0 3.12 1.5"/></svg>