<svg id="Camada_1" data-name="Camada 1" xmlns="http://www.w3.org/2000/svg" viewBox="0 0 113.5 116.5"><defs><clipPath id="clip-path"><path style="fill:none" d="M1.48 1.32h110.77v113.41H1.48z"/></clipPath><style>.cls-4{fill:#fff}</style></defs><g style="clip-path:url(#clip-path)"><path d="M112.25 114.72H56.87C26.28 114.72 1.48 89.34 1.48 58S26.28 1.3 56.87 1.3s55.38 25.4 55.38 56.7Z" style="fill:#722c69"/><path class="cls-4" d="M72.79 71.49c0 .08-.1 7.67-5.28 11H46.58c-1.25-2.38-5.64-11.16-5.64-17.14V40.87a2.45 2.45 0 0 1 4.9 0v7a13.25 13.25 0 0 0-2.44 7.72A13.47 13.47 0 0 0 56.44 69a12 12 0 0 0-.8 3.69 1.23 1.23 0 0 0 1.22 1.23 1.23 1.23 0 0 0 1.22-1.22c0-.31.16-7.52 8.72-8.59a1.41 1.41 0 0 0 .22-.06 1.08 1.08 0 0 0 .46-.27 1.24 1.24 0 0 0 .36-.85v-11a2.45 2.45 0 0 1 4.9 0ZM44.62 92.31V85h24.49v7.35ZM48.05 49a11 11 0 0 1 18 .59 4.79 4.79 0 0 0-.62 2.34v10a11.5 11.5 0 0 0-7.67 4.66 8.87 8.87 0 0 1-.9.06 11 11 0 0 1-11-11A10.92 10.92 0 0 1 48.05 49m.24-16.67a2.45 2.45 0 0 1 4.9 0v10.29a13.51 13.51 0 0 0-4.9 2.58Zm7.35-6.12a2.45 2.45 0 1 1 4.9 0v16.41a13.73 13.73 0 0 0-4.9-.46ZM63 33.53a2.45 2.45 0 1 1 4.9 0v14.15h-.09a13.46 13.46 0 0 0-4.81-4.1ZM75.24 51.9a4.91 4.91 0 0 0-4.9-4.9V33.53A4.87 4.87 0 0 0 63 29.31v-3.13a4.9 4.9 0 1 0-9.8 0v1.9a4.87 4.87 0 0 0-7.35 4.22v4.35a4.86 4.86 0 0 0-7.34 4.22v24.5c0 5.91 3.65 13.84 5.38 17.27A2.45 2.45 0 0 0 42.17 85v7.35a2.45 2.45 0 0 0 2.45 2.45h24.49a2.45 2.45 0 0 0 2.45-2.45V85a2.42 2.42 0 0 0-.87-1.85c4.48-4.39 4.55-11.29 4.55-11.62Z"/><path class="cls-4" d="M56.92 55.11h-.1a1.94 1.94 0 1 1 1.94-1.94.46.46 0 0 0 .92 0 2.87 2.87 0 0 0-2.36-2.81v-.63a.46.46 0 1 0-.91 0v.62a2.85 2.85 0 0 0 .41 5.65h.1A1.94 1.94 0 1 1 55 58a.45.45 0 0 0-.46-.45.46.46 0 0 0-.46.45 2.86 2.86 0 0 0 2.36 2.81v.63a.46.46 0 1 0 .91 0v-.61a2.85 2.85 0 0 0-.4-5.68"/><path class="cls-4" d="M54.51 57.59a.38.38 0 0 0-.37.37 2.76 2.76 0 0 0 2.28 2.72h.08v.71a.36.36 0 0 0 .37.36.37.37 0 0 0 .37-.36v-.7h.07a2.76 2.76 0 0 0-.39-5.5h-.1a2 2 0 1 1 2-2 .37.37 0 1 0 .74 0 2.76 2.76 0 0 0-2.28-2.72h-.07v-.7a.37.37 0 0 0-.37-.37.36.36 0 0 0-.37.37v.69h-.08a2.77 2.77 0 0 0 .4 5.51h.1a2 2 0 1 1-2 2 .37.37 0 0 0-.37-.37m2.35 4.4a.55.55 0 0 1-.55-.54v-.57A2.93 2.93 0 0 1 54 58a.54.54 0 0 1 .54-.54.55.55 0 0 1 .55.54 1.86 1.86 0 1 0 1.86-1.85h-.1a2.94 2.94 0 0 1-.5-5.84v-.54a.55.55 0 0 1 .55-.55.55.55 0 0 1 .54.55v.56a2.94 2.94 0 0 1 2.36 2.88.55.55 0 0 1-1.1 0A1.86 1.86 0 1 0 56.82 55h.1a2.94 2.94 0 0 1 .49 5.84v.55a.54.54 0 0 1-.54.54"/><path class="cls-4" d="M54.51 57.71a.25.25 0 0 0-.25.25 2.65 2.65 0 0 0 2.18 2.61h.17v.8a.26.26 0 0 0 .26.26.26.26 0 0 0 .25-.26v-.79h.18a2.65 2.65 0 0 0-.38-5.27h-.1A2.15 2.15 0 1 1 59 53.17a.25.25 0 0 0 .5 0 2.66 2.66 0 0 0-2.18-2.61h-.17v-.8a.26.26 0 0 0-.25-.26.26.26 0 0 0-.26.26v.79h-.17a2.65 2.65 0 0 0 .38 5.27h.1A2.15 2.15 0 1 1 54.77 58a.26.26 0 0 0-.26-.25m2.36 4.36a.67.67 0 0 1-.67-.67v-.46a3.06 3.06 0 0 1-2.35-3 .67.67 0 0 1 1.33 0 1.74 1.74 0 1 0 1.74-1.73h-.1a3.06 3.06 0 0 1-.62-6.06v-.44a.67.67 0 1 1 1.33 0v.46a3.06 3.06 0 0 1 2.35 3 .66.66 0 0 1-1.32 0 1.74 1.74 0 1 0-1.74 1.73h.1a3.06 3.06 0 0 1 .61 6.06v.44a.67.67 0 0 1-.66.67"/><path class="cls-4" d="M54.51 57.8a.16.16 0 0 0-.16.16 2.56 2.56 0 0 0 2.11 2.52l.24.05v.88a.17.17 0 0 0 .17.16.16.16 0 0 0 .16-.16v-.88h.25a2.56 2.56 0 0 0-.36-5.1h-.1a2.23 2.23 0 1 1 2.24-2.23.16.16 0 0 0 .16.16.17.17 0 0 0 .17-.16 2.56 2.56 0 0 0-2.12-2.52h-.24v-.88a.17.17 0 0 0-.16-.17.18.18 0 0 0-.17.17v.87h-.25a2.56 2.56 0 0 0 .37 5.09h.1A2.24 2.24 0 1 1 54.68 58a.17.17 0 0 0-.17-.16m2.36 4a.34.34 0 0 1-.34-.34v-.74h-.1A2.74 2.74 0 0 1 54.17 58a.34.34 0 1 1 .68 0 2.07 2.07 0 1 0 2.07-2.05h-.1a2.74 2.74 0 0 1-.39-5.45h.1v-.72a.34.34 0 0 1 .34-.34.34.34 0 0 1 .34.34v.73h.09a2.74 2.74 0 0 1 2.26 2.7.34.34 0 1 1-.68 0 2.06 2.06 0 1 0-2.06 2h.1a2.74 2.74 0 0 1 .39 5.45h-.1v.73a.35.35 0 0 1-.34.34m-2.36-4.36a.58.58 0 0 0-.57.57 3 3 0 0 0 2.28 2.89h.07v.54a.58.58 0 0 0 1.15 0v-.52h.07a3 3 0 0 0-.59-5.85h-.1a1.82 1.82 0 1 1 1.82-1.82.58.58 0 0 0 1.16 0 3 3 0 0 0-2.29-2.89h-.07v-.53a.58.58 0 1 0-1.15 0v.51h-.07a3 3 0 0 0 .6 5.88h.1A1.83 1.83 0 1 1 55.09 58a.58.58 0 0 0-.58-.57m2.36 4.77a.76.76 0 0 1-.76-.75V61a3.14 3.14 0 0 1-2.35-3 .75.75 0 0 1 1.5 0 1.66 1.66 0 1 0 1.66-1.64h-.1a3.15 3.15 0 0 1-.71-6.22v-.37a.76.76 0 0 1 1.51 0v.39A3.15 3.15 0 0 1 60 53.17a.75.75 0 0 1-1.5 0 1.65 1.65 0 1 0-1.65 1.64h.1a3.15 3.15 0 0 1 .7 6.22v.38a.76.76 0 0 1-.75.75"/></g></svg>