<svg xmlns="http://www.w3.org/2000/svg" id="Camada_1" data-name="Camada 1" viewBox="0 0 341.87 115.98" version="1.1" width="341.87" height="115.98"><defs id="defs45"><style id="style43">.cls-2{fill:#fff}</style></defs><g id="g87" transform="translate(34.57 -11.728)"><path style="fill:#fff;fill-rule:evenodd;stroke-width:.79775989" id="path49" d="M0 35.023c0 40.893.407 61.292 37.83 80.957 37.742-19.824 37.997-40.893 37.997-80.957-18.915 0-23.701-4.132-37.997-11.567C22.8 31.306 17.59 35.023 0 35.023ZM22.96 67.9l15.285 15.955-.415 21.97C12.549 92.519 8.672 71.043 8.672 43.696c12.31-.91 23.82-5.369 29.158-8.672v34.703l-8.425-7.523zm15.285 13.714-.415-10.491 15.78-14.783 4.411 4.955z"/><path style="fill:#fff;stroke-width:.79775989" id="path51" d="M106.629 73.037H92.692l-3.008 6.685h-2.752l11.44-25.026h2.608l11.44 25.026h-2.784zm-.966-2.138-6.007-13.443L93.657 70.9Z" class="cls-2"/><path style="fill:#fff;stroke-width:.79775989" id="path53" d="M132.62 68.824v10.898h-2.537v-10.65c0-3.99-2.074-6.007-5.648-6.007-4.037 0-6.582 2.505-6.582 6.796v9.86h-2.537v-18.77h2.433v3.47c1.357-2.29 3.893-3.614 7.18-3.614 4.547-.032 7.69 2.617 7.69 8.017z" class="cls-2"/><path style="fill:#fff;stroke-width:.79775989" id="path55" d="M148.71 78.581a6.055 6.055 0 0 1-3.988 1.324c-3.542 0-5.513-2.002-5.513-5.472V63.065h-3.358V60.95h3.358v-4.14h2.577v4.14h5.72v2.145h-5.72v11.225c0 2.218 1.14 3.438 3.247 3.438a4.244 4.244 0 0 0 2.792-.965z" class="cls-2"/><path style="fill:#fff;stroke-width:.79775989" id="path57" d="M152.037 54.983a1.835 1.835 0 0 1 1.859-1.787 1.803 1.803 0 0 1 1.859 1.755 1.859 1.859 0 0 1-3.718 0zm.566 5.936h2.545v18.803h-2.545z" class="cls-2"/><path style="fill:#fff;stroke-width:.79775989" id="path59" d="M164.402 58.7v2.25h5.792v2.146h-5.72v16.658h-2.537v-16.69h-3.358v-2.113h3.358v-2.354c0-3.358 2.003-5.584 5.688-5.584a5.935 5.935 0 0 1 3.75 1.18l-.87 1.9a4.316 4.316 0 0 0-2.792-.926c-2.162 0-3.31 1.212-3.31 3.534z" class="cls-2"/><path style="fill:#fff;stroke-width:.79775989" id="path61" d="M185.248 60.775v2.465h-.606c-3.933 0-6.327 2.505-6.327 6.933v9.573h-2.545V60.95h2.394v3.685c1.22-2.537 3.614-3.861 7.084-3.861z" class="cls-2"/><path style="fill:#fff;stroke-width:.79775989" id="path63" d="M203.27 68.075v11.647h-2.45v-2.928c-1.14 1.93-3.358 3.111-6.47 3.111-4.252 0-6.868-2.217-6.868-5.472 0-2.896 1.858-5.33 7.26-5.33h5.974v-1.14c0-3.191-1.826-4.97-5.329-4.97a9.573 9.573 0 0 0-6.254 2.218L188 63.344a11.966 11.966 0 0 1 7.65-2.537c4.867-.032 7.62 2.401 7.62 7.268zm-2.538 5.999v-3.072h-5.903c-3.646 0-4.827 1.428-4.827 3.359 0 2.186 1.756 3.542 4.787 3.542a6.015 6.015 0 0 0 5.943-3.83z" class="cls-2"/><path style="fill:#fff;stroke-width:.79775989" id="path65" d="M226.396 60.95v18.804h-2.393v-3.43a7.491 7.491 0 0 1-6.765 3.613c-4.787 0-7.93-2.68-7.93-8.081V60.95h2.537v10.658c0 3.988 2.074 6.039 5.648 6.039 3.933 0 6.382-2.537 6.382-6.83v-9.867z" class="cls-2"/><path style="fill:#fff;stroke-width:.79775989" id="path67" d="M249.962 53.196v26.526h-2.433v-3.718a8.137 8.137 0 0 1-7.26 3.901c-5.36 0-9.365-3.9-9.365-9.573 0-5.672 3.988-9.573 9.365-9.573a8.225 8.225 0 0 1 7.18 3.718v-11.28Zm-2.505 17.128c0-4.395-3.007-7.331-6.972-7.331-3.965 0-7.005 2.936-7.005 7.331 0 4.396 3 7.332 7.005 7.332 4.004 0 6.972-2.936 6.972-7.332z" class="cls-2"/><path style="fill:#fff;stroke-width:.79775989" id="path69" d="M272.698 71.106h-15.732c.288 3.933 3.287 6.55 7.404 6.55a7.38 7.38 0 0 0 5.752-2.473l1.435 1.65a9.286 9.286 0 0 1-7.26 3.072c-5.863 0-9.867-3.989-9.867-9.573 0-5.584 3.893-9.573 9.19-9.573s9.11 3.901 9.11 9.573c0 .192-.032.495-.032.774zm-15.732-1.89h13.339a6.685 6.685 0 0 0-13.339 0z" class="cls-2"/></g></svg>