<svg id="Camada_1" data-name="Camada 1" xmlns="http://www.w3.org/2000/svg" viewBox="0 0 75 75"><defs><style>.cls-1{fill:#74c095}</style></defs><path class="cls-1" d="M22.15 4.71h29.53a2.81 2.81 0 0 1 2.81 2.81v3.13H19.33V7.52a2.82 2.82 0 0 1 2.82-2.81m29.53 63.75H22.15a2.83 2.83 0 0 1-2.82-2.82v-7.58h35.16v7.58a2.82 2.82 0 0 1-2.81 2.82m2.81-12.08H19.33V12.33h35.16ZM22.15 70.13h29.53a4.49 4.49 0 0 0 4.49-4.49V7.52A4.49 4.49 0 0 0 51.68 3H22.15a4.49 4.49 0 0 0-4.49 4.49v58.15a4.49 4.49 0 0 0 4.49 4.49"/><path class="cls-1" d="M38.17 64.66a1.8 1.8 0 0 1-1.26.52 1.78 1.78 0 0 1-1.77-1.78 1.78 1.78 0 0 1 1.77-1.77 1.78 1.78 0 0 1 1.78 1.77 1.75 1.75 0 0 1-.52 1.26M36.91 60a3.46 3.46 0 0 0 0 6.91 3.46 3.46 0 1 0 0-6.91"/><path style="fill:none;stroke:#74c095;stroke-width:2px" d="m7.36 6.21 58.37 65.12"/></svg>