<svg id="Camada_1" data-name="Camada 1" xmlns="http://www.w3.org/2000/svg" viewBox="0 0 75 75"><defs><style>.cls-1{fill:#74c095}</style></defs><path class="cls-1" d="M51.56 19.59A18.15 18.15 0 0 0 33.22 37.5a18.35 18.35 0 0 0 36.68 0 18.15 18.15 0 0 0-18.34-17.91m0 38.05A20.41 20.41 0 0 1 30.94 37.5a20.63 20.63 0 0 1 41.25 0 20.41 20.41 0 0 1-20.63 20.14"/><path class="cls-1" d="M52.47 40.17a1.22 1.22 0 0 1-.46-.09l-12.1-5.16a1.11 1.11 0 0 1-.59-1.47 1.15 1.15 0 0 1 1.5-.58l10.5 4.48v-10a1.15 1.15 0 0 1 2.29 0v11.7a1.13 1.13 0 0 1-.52.94 1.15 1.15 0 0 1-.62.18M22.48 40.17H3.29a1.12 1.12 0 1 1 0-2.23h19.19a1.12 1.12 0 1 1 0 2.23M28.21 31.56H9a1.12 1.12 0 1 1 0-2.23h19.21a1.12 1.12 0 1 1 0 2.23"/><path class="cls-1" d="M24.68 40.17H5.49a1.12 1.12 0 1 1 0-2.23h19.19a1.12 1.12 0 1 1 0 2.23M28.21 48.78H9a1.12 1.12 0 1 1 0-2.23h19.21a1.12 1.12 0 1 1 0 2.23"/></svg>