<svg width="32" height="32" viewBox="0 0 32 32" fill="none" xmlns="http://www.w3.org/2000/svg"><g clip-path="url(#a)"><path d="M.744 32a.68.68 0 0 1-.656-.86l2.08-7.597A15.878 15.878 0 0 1 .19 15.862C.195 7.115 7.312 0 16.058 0a15.771 15.771 0 0 1 11.224 4.652 15.768 15.768 0 0 1 4.642 11.223c-.003 8.746-7.121 15.862-15.866 15.862h-.007a15.9 15.9 0 0 1-7.342-1.803L.917 31.978A.684.684 0 0 1 .744 32Z" fill="#E5E5E5"/><path d="m.743 31.32 2.155-7.868a15.155 15.155 0 0 1-2.027-7.59C.874 7.492 7.686.681 16.057.681a15.09 15.09 0 0 1 10.742 4.452 15.09 15.09 0 0 1 4.444 10.741c-.004 8.37-6.817 15.182-15.186 15.182h-.007a15.174 15.174 0 0 1-7.256-1.848l-8.05 2.111Zm8.423-4.86.462.273a12.605 12.605 0 0 0 6.424 1.76h.005c6.956 0 12.619-5.662 12.622-12.62a12.541 12.541 0 0 0-3.694-8.927 12.54 12.54 0 0 0-8.924-3.7c-6.962 0-12.623 5.66-12.626 12.617a12.585 12.585 0 0 0 1.93 6.715l.3.478-1.276 4.656 4.777-1.252Z" fill="#fff"/><path d="m1.271 30.79 2.08-7.596a14.629 14.629 0 0 1-1.957-7.327C1.397 7.786 7.974 1.21 16.054 1.21a14.566 14.566 0 0 1 10.37 4.299 14.566 14.566 0 0 1 4.29 10.368c-.003 8.082-6.58 14.657-14.66 14.657 0 0 .001 0 0 0h-.006a14.658 14.658 0 0 1-7.005-1.784L1.271 30.79Z" fill="#64B161"/><path d="m.743 31.32 2.155-7.868a15.155 15.155 0 0 1-2.027-7.59C.874 7.492 7.686.681 16.057.681a15.09 15.09 0 0 1 10.742 4.452 15.09 15.09 0 0 1 4.444 10.741c-.004 8.37-6.817 15.182-15.186 15.182h-.007a15.174 15.174 0 0 1-7.256-1.848l-8.05 2.111Zm8.423-4.86.462.273a12.605 12.605 0 0 0 6.424 1.76h.005c6.956 0 12.619-5.662 12.622-12.62a12.541 12.541 0 0 0-3.694-8.927 12.54 12.54 0 0 0-8.924-3.7c-6.962 0-12.623 5.66-12.626 12.617a12.585 12.585 0 0 0 1.93 6.715l.3.478-1.276 4.656 4.777-1.252Z" fill="#fff"/><path fill-rule="evenodd" clip-rule="evenodd" d="M12.261 9.515c-.284-.631-.583-.644-.853-.655-.222-.01-.475-.01-.728-.01-.252 0-.664.096-1.011.476-.348.38-1.329 1.297-1.329 3.164 0 1.867 1.36 3.671 1.55 3.925.19.253 2.625 4.207 6.482 5.728 3.205 1.264 3.857 1.012 4.553.949.696-.063 2.245-.918 2.56-1.804.317-.886.317-1.645.222-1.804-.095-.158-.348-.253-.727-.443-.38-.19-2.245-1.108-2.593-1.234-.348-.127-.6-.19-.854.19-.253.38-.98 1.234-1.2 1.487-.222.254-.444.285-.823.095-.38-.19-1.602-.59-3.051-1.883-1.128-1.006-1.89-2.248-2.111-2.628-.222-.379-.004-.566.166-.774.307-.373.822-1.044.949-1.297.126-.254.063-.475-.032-.665-.095-.19-.832-2.066-1.17-2.817Z" fill="#fff"/></g><defs><clipPath id="a"><path fill="#fff" d="M0 0h32v32H0z"/></clipPath></defs></svg>